<svg xmlns="http://www.w3.org/2000/svg" width="167.93" height="66.096" xml:space="preserve"><g fill="#359443"><path d="M136.612 53.781h-.056v-1.634c1.888-.047 3.31 1.09 3.965 2.256.664 1.175.85 2.994-.908 3.003h-3.057v-1.564h2.278c.296 0 .347-.305.208-.572-.438-.849-1.321-1.497-2.43-1.489m-.056 7.667v-1.683h.018c.682-.004 1.363-.154 2.01-.602 1.023-.709 1.888.573 1.11 1.229-.804.658-2.035 1.064-3.138 1.056m0-7.667c-1.061.032-2.097.659-2.515 1.547-.127.274.033.514.331.514h2.184v1.564h-2.271c-.5 0-.402.356-.317.61.291.857 1.389 1.744 2.589 1.748v1.683h-.019c-2.602-.029-4.511-2.142-4.511-4.677 0-2.485 2.001-4.555 4.519-4.623h.011l-.001 1.634zM146.935 61.448c2.574.02 4.694-2.093 4.694-4.609 0-2.479-1.9-4.664-4.694-4.689v1.783c1.616.014 2.979 1.326 2.979 2.935 0 1.629-1.362 2.94-2.979 2.957v1.623zm-.051-9.3a4.723 4.723 0 0 0-4.725 4.527v8.389c0 .554.448.998 1.001.998.51 0 .984-.375.993-1.01v-4.561c.662.516 1.683.926 2.687.954h.096V59.82h-.025a2.935 2.935 0 0 1-2.951-2.956 2.933 2.933 0 0 1 2.951-2.935h.025v-1.783c-.017.002-.035.002-.052.002"/></g><path fill="#A7D52A" d="M159.181 58.624v-2.183a2.178 2.178 0 0 0-2.178-2.178c-1.134 0-2.177.906-2.177 2.178v2.175a1.03 1.03 0 0 1-1.031 1.022c-.564 0-1.05-.459-1.024-1.022l.012-2.021c0-2.996 2.213-4.449 4.203-4.449 1.376.002 2.484.627 3.194 1.527a4.111 4.111 0 0 1 3.203-1.525c2.499 0 4.358 2.15 4.456 4.644.088 2.24-.813 5.975-5.587 7.844-.722.215-1.396-.34-1.333-1.021.032-.373.22-.812.832-.982 3.936-1.125 4.339-4.738 4.153-5.984-.199-1.362-1.006-2.358-2.471-2.383-1.27-.021-2.251.963-2.251 2.178v2.183a.997.997 0 0 1-1.004 1.018c-.544-.003-1.02-.437-.997-1.021"/><path fill="#A6A4A7" d="M128.975 58.441a1.48 1.48 0 0 0 1.479-1.477 1.48 1.48 0 0 0-2.958 0 1.48 1.48 0 0 0 1.479 1.477"/><path fill="#57565C" d="M122.083 61.652v-1.268c1.057-.008 1.773-.547 2.155-1.617a5.002 5.002 0 0 0 .28-1.641 4.517 4.517 0 0 0-.277-1.642c-.399-1.092-1.118-1.633-2.148-1.633h-.01v-1.266h.01c.76.006 1.443.213 2.047.633.588.404 1.047.957 1.37 1.664.313.688.471 1.436.471 2.242 0 1.768-.609 3.072-1.826 3.914-.589.405-1.277.61-2.062.61h-.01v.004zm0-9.065v1.266c-1.033.004-1.752.535-2.15 1.597a4.706 4.706 0 0 0-.285 1.678c0 .869.18 1.602.542 2.195.434.711 1.056 1.063 1.87 1.063h.023v1.268c-1.599-.002-2.741-.762-3.43-2.276a5.371 5.371 0 0 1-.474-2.248c0-1.812.633-3.129 1.896-3.953a3.47 3.47 0 0 1 2.008-.59m-8.958 9.065V60.4a.413.413 0 0 1 .089-.016c.986-.057 1.672-.602 2.061-1.621a4.906 4.906 0 0 0 .286-1.637 4.765 4.765 0 0 0-.247-1.578 2.81 2.81 0 0 0-.765-1.203 1.97 1.97 0 0 0-1.302-.492h-.122v-1.266a3.681 3.681 0 0 1 1.552.324c.979.438 1.659 1.221 2.04 2.342a5.75 5.75 0 0 1 .289 1.807c0 1.808-.599 3.133-1.798 3.982-.571.408-1.228.608-1.964.608-.042.002-.08.002-.119.002m-19.266-5.524c0 2.043-.593 3.563-1.778 4.572-.742.635-1.825.95-3.245.95-1.732 0-3.063-.672-3.99-2.008a6.649 6.649 0 0 1-1.217-3.848c-.009-1.75.431-3.197 1.328-4.344a4.655 4.655 0 0 1 1.646-1.336 5.19 5.19 0 0 1 2.27-.525 6.827 6.827 0 0 1 2.395.395c.717.255 1.271.611 1.664 1.068a.72.72 0 0 1 .165.482.595.595 0 0 1-.223.469.827.827 0 0 1-.496.182 1.012 1.012 0 0 1-.563-.217c-.512-.396-.948-.674-1.314-.832-.451-.188-.959-.281-1.528-.281-1.285 0-2.255.521-2.913 1.563-.569.895-.854 1.928-.863 3.094-.01 1.689.465 3.021 1.416 3.994.554.553 1.262.848 2.127.877.598.021 1.201-.113 1.809-.406 1.248-.6 1.87-1.709 1.87-3.334v-.516H90.3c-.41 0-.636-.217-.679-.648.039-.477.238-.713.61-.713h2.658c.646 0 .969.365.969 1.094v.268zm19.266-3.541v1.266c-.546.013-.997.166-1.356.465-.381.32-.651.728-.816 1.214a5.193 5.193 0 0 0-.264 1.563c-.008.994.213 1.789.665 2.398.444.604 1.021.911 1.728.93a.116.116 0 0 1 .045-.021v1.252c-.933-.03-1.687-.432-2.257-1.198h-.037v3.922c0 .59-.236.883-.714.883a.65.65 0 0 1-.533-.266.888.888 0 0 1-.195-.58V53.37c0-.525.233-.783.698-.783.495 0 .744.248.744.75v.447h.037c.4-.781 1.139-1.183 2.211-1.197h.044zm-13.649.75c0 .395-.334.68-1.005.854-.328.088-.539.156-.642.211-.786.431-1.182 1.166-1.182 2.209v4.291c0 .502-.231.75-.696.75-.497 0-.746-.26-.746-.784V53.37c0-.502.236-.75.714-.75.484 0 .729.248.729.75v.746h.033a3.85 3.85 0 0 1 .861-1.043c.354-.314.725-.474 1.103-.484a.802.802 0 0 1 .574.211.678.678 0 0 1 .257.537m7.951 4.873c0 1.358-.511 2.348-1.531 2.961-.534.32-1.208.479-2.024.479-1.51 0-2.53-.573-3.073-1.719a3.98 3.98 0 0 1-.37-1.723v-4.873c0-.502.238-.75.716-.75.484 0 .729.248.729.75v4.84c0 1.469.676 2.207 2.029 2.207 1.387 0 2.079-.738 2.079-2.207v-4.84c0-.502.24-.75.717-.75.485 0 .729.248.729.75v4.875z"/><path fill="#98D230" d="M160.962 5.303a6.644 6.644 0 1 0-.003 13.287 6.644 6.644 0 0 0 .003-13.287m1.151 11.376a.631.631 0 0 1-.82-.64c.02-.243.166-.448.521-.614 2.561-1.124 2.641-2.983 2.563-3.796-.081-.855-.656-1.522-1.567-1.522-.931 0-1.359.656-1.359 1.472l.005 1.238c.009.402-.328.623-.644.617-.314.003-.646-.221-.635-.62v-1.24c-.022-.975-.677-1.526-1.592-1.454-.693.102-1.106.664-1.123 1.456l.006 1.269s.018.577-.641.607c-.316.002-.65-.22-.64-.62l.009-1.258c-.023-.648.263-1.383.691-1.87.733-.848 1.722-.896 1.924-.898.779-.008 1.627.447 1.999.982.532-.702 1.418-.982 2.007-.982a2.922 2.922 0 0 1 2.909 2.798c.058 1.391-.641 3.91-3.613 5.075"/><g fill="#007934"><path d="M46.227 24.162a8.583 8.583 0 0 0-17.164 0c0 4.738 3.845 8.581 8.582 8.581a8.521 8.521 0 0 0 5.15-1.728v.006c.026 2.81-1.353 8.265-7.814 10.105-1.129.322-1.477 1.129-1.536 1.815-.111 1.257 1.131 2.281 2.465 1.888 8.348-3.273 10.274-9.629 10.317-13.802v-6.844l-.002-.008.002-.013m-8.582 5.497a5.535 5.535 0 1 1 0-11.07 5.534 5.534 0 1 1 0 11.07M50.157 32.743a1.718 1.718 0 0 1-1.717-1.718V17.209a1.718 1.718 0 0 1 3.435 0v13.816c0 .951-.768 1.718-1.718 1.718M51.875 12.826a1.72 1.72 0 0 1-1.718 1.719 1.72 1.72 0 0 1-1.717-1.719c0-.945.77-1.717 1.717-1.717a1.72 1.72 0 0 1 1.718 1.717M62.672 15.579a8.582 8.582 0 1 0 0 17.164c4.738 0 8.582-3.843 8.582-8.58 0-4.74-3.844-8.584-8.582-8.584m0 14.082a5.537 5.537 0 1 1 0-11.074 5.537 5.537 0 0 1 0 11.074M75.19 32.743c.951 0 1.722-.769 1.726-1.72v-6.862a5.512 5.512 0 0 1 .396-2.021c.818-2.037 2.408-3.477 4.738-3.477 2.328 0 3.921 1.438 4.739 3.477a5.52 5.52 0 0 1 .397 2.021V31.021c.001.951.771 1.72 1.725 1.72.948 0 1.724-.771 1.724-1.724v-6.856c0-2.812-1.361-5.298-3.447-6.864-1.434-1.074-3.207-1.72-5.137-1.72s-3.701.646-5.135 1.72a8.559 8.559 0 0 0-3.447 6.864v6.856a1.72 1.72 0 0 0 1.721 1.726m1.523-8.58c-.1.002-.197.006-.197 0h.197zM106.577 17.308a8.539 8.539 0 0 0-5.149-1.729 8.582 8.582 0 0 0 0 17.164 8.516 8.516 0 0 0 5.149-1.728v.01a1.718 1.718 0 1 0 3.434 0v-6.862a8.568 8.568 0 0 0-3.434-6.855m-5.186 12.39a5.537 5.537 0 1 1 0-11.073 5.536 5.536 0 0 1 5.187 3.618c.222.598.35 1.243.35 1.92 0 .676-.128 1.317-.35 1.919a5.534 5.534 0 0 1-5.187 3.616M119.643 29.705l.002-.003c-1.82-.392-2.914-1.677-3.586-3.37a5.53 5.53 0 0 1-.395-2.041V12.83a1.72 1.72 0 1 0-3.441 0v-1.514 13.011a8.541 8.541 0 0 0 2.895 6.414 8.566 8.566 0 0 0 3.786 1.948c.021.009.041.018.063.021l.031.004a1.542 1.542 0 0 0 1.83-1.513 1.538 1.538 0 0 0-1.185-1.496M129.289 18.589c-1.996.026-3.959 1.194-4.741 2.862-.234.504.063.941.611.941h8.233c.547 0 .646-.561.387-1.053-.813-1.568-2.439-2.762-4.49-2.75m-4.875 7.82c.537 1.592 2.573 3.231 4.807 3.224 1.259-.002 2.516-.278 3.709-1.104 1.889-1.31 3.482 1.063 2.052 2.274-1.486 1.214-3.786 1.964-5.828 1.94-4.801-.056-8.323-3.949-8.323-8.634 0-4.59 3.691-8.406 8.343-8.532 3.493-.096 6.119 2.012 7.337 4.166 1.224 2.168 1.563 5.528-1.678 5.542h-9.835c-.922 0-.743.658-.584 1.124M152.653 25.349a5.057 5.057 0 0 0-4.475-2.709h-3.673c-1.105-.002-1.615-.897-1.615-2.006s.896-2.006 2.002-2.009h4.537a1.523 1.523 0 1 0 0-3.044h-4.921c-1.945 0-3.63 1.1-4.475 2.712a5.018 5.018 0 0 0-.578 2.343c0 .846.21 1.641.578 2.342a5.05 5.05 0 0 0 4.475 2.711h3.287c1.106 0 2.003.898 2.003 2.004 0 1.108-.509 2.007-1.618 2.009h-7.202a1.521 1.521 0 1 0 0 3.043h7.2a5.053 5.053 0 0 0 4.475-7.396"/></g><g fill="#98D230"><path d="M8.764 15.585c-.015 0-.029.004-.041.004v-.004a8.546 8.546 0 0 0-5.138 1.719l-.011.012v-.101a1.717 1.717 0 0 0-3.434 0V31.032c0 .948.77 1.719 1.716 1.719h.006c.95 0 1.721-.771 1.723-1.719l.003-.007v-6.86a5.516 5.516 0 0 1 .396-2.021c.818-2.037 2.41-3.478 4.738-3.478v-.005c.012.002.026.005.041.005a1.54 1.54 0 0 0 .001-3.081M18.765 18.554c-1.994.025-3.958 1.194-4.741 2.861-.235.504.063.94.611.94h8.234c.548 0 .645-.558.388-1.051-.813-1.568-2.439-2.761-4.492-2.75m-4.875 7.819c.538 1.592 2.575 3.232 4.806 3.228 1.261-.004 2.519-.281 3.708-1.106 1.892-1.312 3.486 1.065 2.053 2.274-1.486 1.213-3.783 1.963-5.824 1.94-4.803-.054-8.327-3.95-8.327-8.634 0-4.591 3.693-8.408 8.345-8.532 3.493-.095 6.119 2.013 7.337 4.163 1.224 2.17 1.563 5.528-1.679 5.545h-9.834c-.923 0-.744.656-.585 1.122"/></g><g fill="#666"><path d="M7.667 8.221c0 .493-.225.739-.673.739-.447 0-.671-.224-.671-.671v-.64h-.032c-.623.861-1.383 1.299-2.277 1.311a3.694 3.694 0 0 1-2.004-.547C.727 7.637.084 6.345.084 4.539.084 2.627.748 1.29 2.082.53 2.661.2 3.244.035 3.833.035c.955 0 1.771.393 2.458 1.178h.032V.738c0-.197.063-.365.187-.5a.636.636 0 0 1 .484-.201c.448 0 .673.246.673.737v7.447zM6.291 4.504c0-1.345-.375-2.291-1.127-2.834a2.075 2.075 0 0 0-1.23-.388h-.033c-.758 0-1.346.31-1.758.928-.399.6-.604 1.364-.616 2.294-.006.547.081 1.07.261 1.575.381 1.09 1.063 1.634 2.046 1.634.863 0 1.507-.334 1.931-1 .351-.554.526-1.289.526-2.209M16.715 8.254c0 1.676-.591 2.88-1.773 3.607-.596.364-1.29.549-2.088.554a5.069 5.069 0 0 1-2.717-.772c-.434-.263-.666-.563-.703-.898.063-.341.254-.543.57-.607.322.042.646.173.967.396.625.426 1.272.641 1.947.641.807 0 1.418-.335 1.84-1.005.355-.563.535-1.271.535-2.127 0-.037-.003-.091-.008-.163a1.712 1.712 0 0 1-.009-.164h-.03c-.466.838-1.24 1.255-2.328 1.247a3.304 3.304 0 0 1-1.954-.635c-.554-.399-.984-.941-1.292-1.622a5.343 5.343 0 0 1-.471-2.267c.008-.839.174-1.599.5-2.282A3.665 3.665 0 0 1 11.048.593a3.57 3.57 0 0 1 2.019-.558c1.064.016 1.792.419 2.181 1.21h.03V.774c0-.47.233-.707.703-.707.49 0 .734.247.734.741v7.446zm-1.273-3.651c0-1.266-.366-2.211-1.102-2.837-.391-.334-.863-.496-1.422-.484a1.867 1.867 0 0 0-1.271.492 2.759 2.759 0 0 0-.76 1.19 4.917 4.917 0 0 0 .041 3.168c.175.476.434.855.781 1.136.355.29.77.438 1.241.446.729.01 1.328-.269 1.8-.84.461-.556.692-1.313.692-2.271M25.602 5.573c0 1.34-.502 2.31-1.506 2.913-.527.316-1.191.474-1.996.474-1.481 0-2.492-.564-3.025-1.693a3.958 3.958 0 0 1-.363-1.696V.774c0-.491.234-.737.704-.737.479 0 .719.246.719.737V5.54c0 1.449.666 2.174 1.999 2.174 1.363 0 2.047-.725 2.047-2.174V.774c0-.491.234-.737.704-.737.479 0 .719.246.719.737l-.002 4.799zM34.659 8.221c0 .493-.225.739-.672.739-.448 0-.673-.224-.673-.671v-.64h-.029c-.624.86-1.385 1.297-2.28 1.312a3.702 3.702 0 0 1-2.003-.547c-1.283-.776-1.926-2.068-1.926-3.874 0-1.912.666-3.249 1.998-4.009.58-.33 1.161-.495 1.752-.495.953 0 1.772.393 2.459 1.178h.029V.738a.71.71 0 0 1 .188-.5.634.634 0 0 1 .483-.201c.447 0 .672.246.672.737l.002 7.447zm-1.374-3.717c0-1.345-.377-2.291-1.127-2.834a2.078 2.078 0 0 0-1.23-.388h-.034c-.76 0-1.346.31-1.757.928-.402.6-.604 1.364-.617 2.294-.006.547.08 1.071.26 1.576.385 1.09 1.066 1.634 2.048 1.634.862 0 1.506-.334 1.93-1 .35-.555.527-1.29.527-2.21M42.465 6.406c-.006.435-.129.85-.375 1.243-.24.385-.6.696-1.079.937-.491.248-1.085.373-1.77.375-1.137.006-2.082-.317-2.848-.967-.225-.154-.355-.391-.396-.704a.62.62 0 0 1 .182-.454.59.59 0 0 1 .443-.185c.205 0 .516.149.933.451.204.149.352.244.442.283.352.203.754.313 1.209.328.439.016.854-.08 1.245-.287.358-.193.538-.495.538-.909 0-.385-.224-.712-.667-.978-.282-.168-.702-.364-1.26-.588-.627-.248-1.039-.422-1.235-.524-.447-.23-.799-.502-1.052-.812-.257-.31-.383-.694-.383-1.158 0-.92.453-1.608 1.361-2.063.456-.229.952-.35 1.485-.359.5-.012 1.017.078 1.55.268.518.187.884.386 1.104.598.229.226.342.449.342.673a.575.575 0 0 1-.19.434.714.714 0 0 1-.447.205c-.188-.047-.455-.167-.795-.359-.469-.264-.733-.41-.791-.438a1.506 1.506 0 0 0-.625-.133c-.504-.008-.893.096-1.158.31-.268.216-.409.476-.428.786.088.476.452.859 1.092 1.147.267.122.59.246.971.374.294.103.556.202.783.298.656.273 1.121.58 1.396.919.29.358.431.789.423 1.289"/></g></svg>