<?xml version="1.0" encoding="utf-8"?>
<!-- Generator: Adobe Illustrator 16.0.0, SVG Export Plug-In . SVG Version: 6.00 Build 0)  -->
<!DOCTYPE svg PUBLIC "-//W3C//DTD SVG 1.1//EN" "http://www.w3.org/Graphics/SVG/1.1/DTD/svg11.dtd">
<svg version="1.1" id="Layer_1" xmlns="http://www.w3.org/2000/svg" xmlns:xlink="http://www.w3.org/1999/xlink" x="0px" y="0px"
	 width="167.93px" height="66.096px" viewBox="0 0 167.93 66.096" enable-background="new 0 0 167.93 66.096" xml:space="preserve">
<g>
	<g>
		<path fill="#359443" d="M136.612,53.781h-0.056v-1.634c1.888-0.047,3.31,1.09,3.965,2.256c0.664,1.175,0.85,2.994-0.908,3.003
			h-3.057v-1.564h2.278c0.296,0,0.347-0.305,0.208-0.572C138.604,54.421,137.721,53.773,136.612,53.781 M136.556,61.448v-1.683
			h0.018c0.682-0.004,1.363-0.154,2.01-0.602c1.023-0.709,1.888,0.573,1.11,1.229C138.89,61.05,137.659,61.456,136.556,61.448
			 M136.556,53.781c-1.061,0.032-2.097,0.659-2.515,1.547c-0.127,0.274,0.033,0.514,0.331,0.514h2.184v1.564h-2.271
			c-0.5,0-0.402,0.356-0.317,0.61c0.291,0.857,1.389,1.744,2.589,1.748v1.683h-0.019c-2.602-0.029-4.511-2.142-4.511-4.677
			c0-2.485,2.001-4.555,4.519-4.623h0.011L136.556,53.781L136.556,53.781z"/>
		<path fill="#359443" d="M146.935,61.448c2.574,0.02,4.694-2.093,4.694-4.609c0-2.479-1.9-4.664-4.694-4.689v1.783
			c1.616,0.014,2.979,1.326,2.979,2.935c0,1.629-1.362,2.94-2.979,2.957V61.448z M146.884,52.148c-2.561,0-4.618,2.015-4.725,4.527
			v8.389c0,0.554,0.448,0.998,1.001,0.998c0.51,0,0.984-0.375,0.993-1.01v-4.561c0.662,0.516,1.683,0.926,2.687,0.954
			c0.032,0,0.063,0,0.096,0v-1.625h-0.025c-1.652,0-2.951-1.317-2.951-2.956c0-1.617,1.302-2.935,2.951-2.935h0.025v-1.783
			C146.919,52.148,146.901,52.148,146.884,52.148"/>
	</g>
	<path fill="#A7D52A" d="M159.181,58.624v-2.183c0-1.202-0.974-2.178-2.178-2.178c-1.134,0-2.177,0.906-2.177,2.178v2.15v0.025
		c-0.002,0.565-0.466,1.022-1.031,1.022c-0.564,0-1.05-0.459-1.024-1.022l0.012-2.021c0-2.996,2.213-4.449,4.203-4.449
		c1.376,0.002,2.484,0.627,3.194,1.527c0.92-1.137,2.193-1.525,3.203-1.525c2.499,0,4.358,2.15,4.456,4.644
		c0.088,2.24-0.813,5.975-5.587,7.844c-0.722,0.215-1.396-0.34-1.333-1.021c0.032-0.373,0.22-0.812,0.832-0.982
		c3.936-1.125,4.339-4.738,4.153-5.984c-0.199-1.362-1.006-2.358-2.471-2.383c-1.27-0.021-2.251,0.963-2.251,2.178v2.183
		c0.009,0.574-0.448,1.018-1.004,1.018C159.634,59.642,159.158,59.208,159.181,58.624"/>
	<path fill="#A6A4A7" d="M128.975,58.441c0.815,0,1.479-0.662,1.479-1.477c0-0.816-0.662-1.479-1.479-1.479
		c-0.815,0-1.479,0.662-1.479,1.479C127.496,57.779,128.16,58.441,128.975,58.441"/>
	<path fill="#57565C" d="M122.083,61.652v-1.268c1.057-0.008,1.773-0.547,2.155-1.617c0.181-0.514,0.276-1.059,0.28-1.641
		c0.007-0.574-0.085-1.129-0.277-1.642c-0.399-1.092-1.118-1.633-2.148-1.633h-0.01v-1.266h0.01c0.76,0.006,1.443,0.213,2.047,0.633
		c0.588,0.404,1.047,0.957,1.37,1.664c0.313,0.688,0.471,1.436,0.471,2.242c0,1.768-0.609,3.072-1.826,3.914
		c-0.589,0.405-1.277,0.61-2.062,0.61h-0.01V61.652z M122.083,52.587v1.266c-1.033,0.004-1.752,0.535-2.15,1.597
		c-0.189,0.498-0.285,1.059-0.285,1.678c0,0.869,0.18,1.602,0.542,2.195c0.434,0.711,1.056,1.063,1.87,1.063h0.023v1.268
		c-1.599-0.002-2.741-0.762-3.43-2.276c-0.315-0.693-0.474-1.443-0.474-2.248c0-1.812,0.633-3.129,1.896-3.953
		C120.678,52.775,121.347,52.579,122.083,52.587 M113.125,61.652V60.4c0.026-0.008,0.059-0.014,0.089-0.016
		c0.986-0.057,1.672-0.602,2.061-1.621c0.183-0.502,0.279-1.045,0.286-1.637c0.006-0.539-0.075-1.064-0.247-1.578
		c-0.166-0.488-0.422-0.893-0.765-1.203c-0.361-0.318-0.795-0.481-1.302-0.492c-0.043,0-0.083,0-0.122,0v-1.266
		c0.543-0.004,1.063,0.104,1.552,0.324c0.979,0.438,1.659,1.221,2.04,2.342c0.188,0.561,0.286,1.166,0.289,1.807
		c0,1.808-0.599,3.133-1.798,3.982c-0.571,0.408-1.228,0.608-1.964,0.608C113.202,61.652,113.164,61.652,113.125,61.652
		 M93.859,56.128c0,2.043-0.593,3.563-1.778,4.572c-0.742,0.635-1.825,0.95-3.245,0.95c-1.732,0-3.063-0.672-3.99-2.008
		c-0.803-1.149-1.208-2.436-1.217-3.848c-0.009-1.75,0.431-3.197,1.328-4.344c0.438-0.564,0.985-1.011,1.646-1.336
		c0.686-0.339,1.44-0.515,2.27-0.525c0.826-0.01,1.629,0.121,2.395,0.395c0.717,0.255,1.271,0.611,1.664,1.068
		c0.11,0.131,0.165,0.289,0.165,0.482c0,0.186-0.075,0.342-0.223,0.469c-0.142,0.111-0.305,0.176-0.496,0.182
		c-0.213-0.018-0.403-0.088-0.563-0.217c-0.512-0.396-0.948-0.674-1.314-0.832c-0.451-0.188-0.959-0.281-1.528-0.281
		c-1.285,0-2.255,0.521-2.913,1.563c-0.569,0.895-0.854,1.928-0.863,3.094c-0.01,1.689,0.465,3.021,1.416,3.994
		c0.554,0.553,1.262,0.848,2.127,0.877c0.598,0.021,1.201-0.113,1.809-0.406c1.248-0.6,1.87-1.709,1.87-3.334v-0.516H90.3
		c-0.41,0-0.636-0.217-0.679-0.648c0.039-0.477,0.238-0.713,0.61-0.713h2.658c0.646,0,0.969,0.365,0.969,1.094V56.128z
		 M113.125,52.587v1.266c-0.546,0.013-0.997,0.166-1.356,0.465c-0.381,0.32-0.651,0.728-0.816,1.214
		c-0.169,0.518-0.258,1.036-0.264,1.563c-0.008,0.994,0.213,1.789,0.665,2.398c0.444,0.604,1.021,0.911,1.728,0.93
		c0.015-0.012,0.028-0.016,0.045-0.021v1.252c-0.933-0.03-1.687-0.432-2.257-1.198h-0.037v3.922c0,0.59-0.236,0.883-0.714,0.883
		c-0.22,0-0.396-0.092-0.533-0.266c-0.131-0.16-0.195-0.355-0.195-0.58V53.37c0-0.525,0.233-0.783,0.698-0.783
		c0.495,0,0.744,0.248,0.744,0.75v0.447h0.037c0.4-0.781,1.139-1.183,2.211-1.197H113.125z M99.476,53.337
		c0,0.395-0.334,0.68-1.005,0.854c-0.328,0.088-0.539,0.156-0.642,0.211c-0.786,0.431-1.182,1.166-1.182,2.209v4.291
		c0,0.502-0.231,0.75-0.696,0.75c-0.497,0-0.746-0.26-0.746-0.784v-7.498c0-0.502,0.236-0.75,0.714-0.75
		c0.484,0,0.729,0.248,0.729,0.75v0.746h0.033c0.215-0.386,0.501-0.732,0.861-1.043c0.354-0.314,0.725-0.474,1.103-0.484
		c0.214-0.008,0.404,0.063,0.574,0.211C99.39,52.945,99.476,53.124,99.476,53.337 M107.427,58.21c0,1.358-0.511,2.348-1.531,2.961
		c-0.534,0.32-1.208,0.479-2.024,0.479c-1.51,0-2.53-0.573-3.073-1.719c-0.248-0.524-0.37-1.1-0.37-1.723v-4.873
		c0-0.502,0.238-0.75,0.716-0.75c0.484,0,0.729,0.248,0.729,0.75v4.84c0,1.469,0.676,2.207,2.029,2.207
		c1.387,0,2.079-0.738,2.079-2.207v-4.84c0-0.502,0.24-0.75,0.717-0.75c0.485,0,0.729,0.248,0.729,0.75V58.21z"/>
	<path fill="#98D230" d="M160.962,5.303c-3.67,0-6.645,2.974-6.645,6.642c0,3.671,2.975,6.645,6.645,6.645
		c3.667,0,6.643-2.974,6.643-6.645C167.604,8.278,164.629,5.303,160.962,5.303 M162.113,16.679c-0.449,0.142-0.856-0.236-0.82-0.64
		c0.02-0.243,0.166-0.448,0.521-0.614c2.561-1.124,2.641-2.983,2.563-3.796c-0.081-0.855-0.656-1.522-1.567-1.522
		c-0.931,0-1.359,0.656-1.359,1.472l0.005,1.238c0.009,0.402-0.328,0.623-0.644,0.617c-0.314,0.003-0.646-0.221-0.635-0.62v-1.24
		c-0.022-0.975-0.677-1.526-1.592-1.454c-0.693,0.102-1.106,0.664-1.123,1.456l0.006,1.269c0,0,0.018,0.577-0.641,0.607
		c-0.316,0.002-0.65-0.22-0.64-0.62l0.009-1.258c-0.023-0.648,0.263-1.383,0.691-1.87c0.733-0.848,1.722-0.896,1.924-0.898
		c0.779-0.008,1.627,0.447,1.999,0.982c0.532-0.702,1.418-0.982,2.007-0.982c1.557,0,2.85,1.246,2.909,2.798
		C165.784,12.995,165.085,15.514,162.113,16.679"/>
	<g>
		<path fill="#007934" d="M46.227,24.162c0-4.739-3.842-8.583-8.582-8.583c-4.737,0-8.582,3.844-8.582,8.583
			c0,4.738,3.845,8.581,8.582,8.581c1.937,0,3.713-0.646,5.15-1.728v0.006c0.026,2.81-1.353,8.265-7.814,10.105
			c-1.129,0.322-1.477,1.129-1.536,1.815c-0.111,1.257,1.131,2.281,2.465,1.888c8.348-3.273,10.274-9.629,10.317-13.802
			c0-0.004,0-0.006,0-0.008v-6.836c0-0.002-0.002-0.004-0.002-0.008S46.227,24.167,46.227,24.162 M37.645,29.659
			c-3.058,0-5.535-2.479-5.535-5.535c0-3.06,2.479-5.535,5.535-5.535c3.06,0,5.537,2.477,5.537,5.535
			C43.182,27.181,40.703,29.659,37.645,29.659"/>
		<path fill="#007934" d="M50.157,32.743L50.157,32.743c-0.947,0-1.717-0.769-1.717-1.718V17.209c0-0.947,0.77-1.716,1.717-1.716
			c0.948,0,1.718,0.769,1.718,1.716v13.816C51.875,31.976,51.107,32.743,50.157,32.743"/>
		<path fill="#007934" d="M51.875,12.826c0,0.947-0.77,1.719-1.718,1.719c-0.947,0-1.717-0.771-1.717-1.719
			c0-0.945,0.77-1.717,1.717-1.717C51.107,11.111,51.875,11.882,51.875,12.826"/>
		<path fill="#007934" d="M62.672,15.579c-4.741,0-8.583,3.844-8.583,8.584c0,4.737,3.842,8.58,8.583,8.58
			c4.738,0,8.582-3.843,8.582-8.58C71.254,19.423,67.41,15.579,62.672,15.579 M62.672,29.661c-3.059,0-5.537-2.48-5.537-5.537
			c0-3.06,2.479-5.535,5.537-5.535c3.055,0,5.535,2.477,5.535,5.535C68.207,27.181,65.727,29.661,62.672,29.661"/>
		<path fill="#007934" d="M75.19,32.743c0.951,0,1.722-0.769,1.726-1.72c0-0.002,0-0.002,0-0.004v-4.764v-2.094
			c0.004-0.715,0.146-1.396,0.396-2.021c0.818-2.037,2.408-3.477,4.738-3.477c2.328,0,3.921,1.438,4.739,3.477
			c0.25,0.625,0.393,1.308,0.397,2.021v6.856c0,0.002,0,0.002,0,0.004c0.001,0.951,0.771,1.72,1.725,1.72
			c0.948,0,1.724-0.771,1.724-1.724v-6.856c0-2.812-1.361-5.298-3.447-6.864c-1.434-1.074-3.207-1.72-5.137-1.72
			s-3.701,0.646-5.135,1.72c-2.09,1.566-3.447,4.054-3.447,6.864v6.856C73.467,31.973,74.239,32.743,75.19,32.743 M76.713,24.163
			c-0.1,0.002-0.197,0.006-0.197,0H76.713z"/>
		<path fill="#007934" d="M106.577,17.308c-1.437-1.08-3.215-1.729-5.149-1.729c-4.74,0-8.581,3.844-8.581,8.584
			c0,4.737,3.841,8.58,8.581,8.58c1.936,0,3.714-0.646,5.149-1.728v0.01c0,0.949,0.77,1.718,1.716,1.718
			c0.95,0,1.718-0.769,1.718-1.718v-6.862C110.01,21.359,108.658,18.875,106.577,17.308 M101.391,29.698
			c-3.058,0-5.538-2.479-5.538-5.535c0-3.058,2.48-5.538,5.538-5.538c2.381,0,4.405,1.509,5.187,3.618
			c0.222,0.598,0.35,1.243,0.35,1.92c0,0.676-0.128,1.317-0.35,1.919C105.797,28.191,103.772,29.698,101.391,29.698"/>
		<path fill="#007934" d="M119.643,29.705l0.002-0.003c-1.82-0.392-2.914-1.677-3.586-3.37c-0.251-0.634-0.395-1.321-0.395-2.041
			v-2.042V12.83c0-0.949-0.771-1.721-1.722-1.721c-0.949,0-1.719,0.771-1.719,1.721v-1.514v13.011c0,2.556,1.121,4.842,2.895,6.414
			c1.06,0.94,2.355,1.623,3.786,1.948c0.021,0.009,0.041,0.018,0.063,0.021c0.011,0.002,0.021,0.002,0.031,0.004
			c0.094,0.021,0.188,0.028,0.288,0.028c0.851,0,1.542-0.69,1.542-1.541C120.829,30.473,120.322,29.866,119.643,29.705"/>
		<path fill="#007934" d="M129.289,18.589c-1.996,0.026-3.959,1.194-4.741,2.862c-0.234,0.504,0.063,0.941,0.611,0.941h8.233
			c0.547,0,0.646-0.561,0.387-1.053C132.966,19.771,131.34,18.577,129.289,18.589 M124.414,26.409
			c0.537,1.592,2.573,3.231,4.807,3.224c1.259-0.002,2.516-0.278,3.709-1.104c1.889-1.31,3.482,1.063,2.052,2.274
			c-1.486,1.214-3.786,1.964-5.828,1.94c-4.801-0.056-8.323-3.949-8.323-8.634c0-4.59,3.691-8.406,8.343-8.532
			c3.493-0.096,6.119,2.012,7.337,4.166c1.224,2.168,1.563,5.528-1.678,5.542h-9.835C124.076,25.285,124.255,25.943,124.414,26.409"
			/>
		<path fill="#007934" d="M152.653,25.349c-0.846-1.606-2.529-2.709-4.475-2.709h-3.673c-1.105-0.002-1.615-0.897-1.615-2.006
			s0.896-2.006,2.002-2.009h4.537c0.841,0,1.523-0.682,1.523-1.522c0-0.84-0.684-1.522-1.523-1.522h-4.921
			c-1.945,0-3.63,1.1-4.475,2.712c-0.368,0.7-0.578,1.496-0.578,2.343c0,0.846,0.21,1.641,0.578,2.342
			c0.845,1.609,2.528,2.711,4.475,2.711h3.287c1.106,0,2.003,0.898,2.003,2.004c0,1.108-0.509,2.007-1.618,2.009
			c-0.001,0-0.001,0-0.002,0s-7.2,0-7.2,0c-0.842,0-1.522,0.682-1.522,1.521s0.682,1.522,1.522,1.522h7.2
			c1.944,0,3.629-1.101,4.475-2.711c0.367-0.698,0.578-1.495,0.578-2.343C153.231,26.846,153.02,26.051,152.653,25.349"/>
	</g>
	<g>
		<path fill="#98D230" d="M8.764,15.585c-0.015,0-0.029,0.004-0.041,0.004v-0.004c-1.928,0-3.703,0.645-5.138,1.719
			c-0.003,0.004-0.006,0.008-0.011,0.012v-0.101c0-0.948-0.769-1.716-1.718-1.716c-0.946,0-1.716,0.768-1.716,1.716v6.952l0,0v6.858
			l0,0v0.007c0,0.948,0.77,1.719,1.716,1.719c0.002,0,0.002,0,0.002,0c0.002,0,0.004,0,0.004,0c0.95,0,1.721-0.771,1.723-1.719
			c0-0.002,0.003-0.007,0.003-0.007v-4.764v-2.096c0.004-0.714,0.146-1.396,0.396-2.021c0.818-2.037,2.41-3.478,4.738-3.478v-0.005
			c0.012,0.002,0.026,0.005,0.041,0.005c0.851,0,1.54-0.69,1.54-1.543C10.304,16.277,9.615,15.585,8.764,15.585"/>
		<path fill="#98D230" d="M18.765,18.554c-1.994,0.025-3.958,1.194-4.741,2.861c-0.235,0.504,0.063,0.94,0.611,0.94h8.234
			c0.548,0,0.645-0.558,0.388-1.051C22.444,19.736,20.818,18.543,18.765,18.554 M13.89,26.373c0.538,1.592,2.575,3.232,4.806,3.228
			c1.261-0.004,2.519-0.281,3.708-1.106c1.892-1.312,3.486,1.065,2.053,2.274c-1.486,1.213-3.783,1.963-5.824,1.94
			c-4.803-0.054-8.327-3.95-8.327-8.634c0-4.591,3.693-8.408,8.345-8.532c3.493-0.095,6.119,2.013,7.337,4.163
			c1.224,2.17,1.563,5.528-1.679,5.545h-9.834C13.552,25.251,13.731,25.907,13.89,26.373"/>
	</g>
	<g>
		<path fill="#666666" d="M7.667,8.221c0,0.493-0.225,0.739-0.673,0.739c-0.447,0-0.671-0.224-0.671-0.671V7.649H6.291
			C5.668,8.51,4.908,8.948,4.014,8.96C3.298,8.97,2.631,8.789,2.01,8.413C0.727,7.637,0.084,6.345,0.084,4.539
			c0-1.912,0.664-3.249,1.998-4.009C2.661,0.2,3.244,0.035,3.833,0.035c0.955,0,1.771,0.393,2.458,1.178h0.032V0.738
			c0-0.197,0.063-0.365,0.187-0.5c0.126-0.134,0.288-0.201,0.484-0.201c0.448,0,0.673,0.246,0.673,0.737V8.221z M6.291,4.504
			c0-1.345-0.375-2.291-1.127-2.834c-0.36-0.256-0.771-0.388-1.23-0.388H3.901c-0.758,0-1.346,0.31-1.758,0.928
			c-0.399,0.6-0.604,1.364-0.616,2.294c-0.006,0.547,0.081,1.07,0.261,1.575c0.381,1.09,1.063,1.634,2.046,1.634
			c0.863,0,1.507-0.334,1.931-1C6.116,6.159,6.291,5.424,6.291,4.504"/>
		<path fill="#666666" d="M16.715,8.254c0,1.676-0.591,2.88-1.773,3.607c-0.596,0.364-1.29,0.549-2.088,0.554
			c-0.959,0.006-1.865-0.252-2.717-0.772c-0.434-0.263-0.666-0.563-0.703-0.898c0.063-0.341,0.254-0.543,0.57-0.607
			c0.322,0.042,0.646,0.173,0.967,0.396c0.625,0.426,1.272,0.641,1.947,0.641c0.807,0,1.418-0.335,1.84-1.005
			c0.355-0.563,0.535-1.271,0.535-2.127c0-0.037-0.003-0.091-0.008-0.163c-0.007-0.072-0.009-0.126-0.009-0.164h-0.03
			c-0.466,0.838-1.24,1.255-2.328,1.247c-0.723-0.005-1.373-0.217-1.954-0.635C10.41,7.929,9.98,7.387,9.672,6.706
			C9.354,6.005,9.196,5.249,9.201,4.439C9.209,3.6,9.375,2.84,9.701,2.157c0.315-0.671,0.766-1.19,1.347-1.564
			c0.598-0.382,1.271-0.569,2.019-0.558c1.064,0.016,1.792,0.419,2.181,1.21h0.03V0.774c0-0.47,0.233-0.707,0.703-0.707
			c0.49,0,0.734,0.247,0.734,0.741V8.254z M15.442,4.603c0-1.266-0.366-2.211-1.102-2.837c-0.391-0.334-0.863-0.496-1.422-0.484
			C12.422,1.29,12,1.453,11.647,1.774c-0.344,0.311-0.596,0.706-0.76,1.19c-0.167,0.505-0.247,1.018-0.243,1.54
			c0.008,0.592,0.104,1.134,0.284,1.628c0.175,0.476,0.434,0.855,0.781,1.136c0.355,0.29,0.77,0.438,1.241,0.446
			c0.729,0.01,1.328-0.269,1.8-0.84C15.211,6.318,15.442,5.561,15.442,4.603"/>
		<path fill="#666666" d="M25.602,5.573c0,1.34-0.502,2.31-1.506,2.913C23.569,8.802,22.905,8.96,22.1,8.96
			c-1.481,0-2.492-0.564-3.025-1.693c-0.241-0.516-0.363-1.081-0.363-1.696V0.774c0-0.491,0.234-0.737,0.704-0.737
			c0.479,0,0.719,0.246,0.719,0.737V5.54c0,1.449,0.666,2.174,1.999,2.174c1.363,0,2.047-0.725,2.047-2.174V0.774
			c0-0.491,0.234-0.737,0.704-0.737c0.479,0,0.719,0.246,0.719,0.737L25.602,5.573L25.602,5.573z"/>
		<path fill="#666666" d="M34.659,8.221c0,0.493-0.225,0.739-0.672,0.739c-0.448,0-0.673-0.224-0.673-0.671V7.649h-0.029
			c-0.624,0.86-1.385,1.297-2.28,1.312c-0.712,0.01-1.381-0.171-2.003-0.547c-1.283-0.776-1.926-2.068-1.926-3.874
			c0-1.912,0.666-3.249,1.998-4.009c0.58-0.33,1.161-0.495,1.752-0.495c0.953,0,1.772,0.393,2.459,1.178h0.029V0.738
			c0-0.197,0.063-0.365,0.188-0.5c0.126-0.134,0.287-0.201,0.483-0.201c0.447,0,0.672,0.246,0.672,0.737L34.659,8.221L34.659,8.221z
			 M33.285,4.504c0-1.345-0.377-2.291-1.127-2.834c-0.361-0.256-0.771-0.388-1.23-0.388h-0.034c-0.76,0-1.346,0.31-1.757,0.928
			c-0.402,0.6-0.604,1.364-0.617,2.294c-0.006,0.547,0.08,1.071,0.26,1.576c0.385,1.09,1.066,1.634,2.048,1.634
			c0.862,0,1.506-0.334,1.93-1C33.108,6.159,33.285,5.424,33.285,4.504"/>
		<path fill="#666666" d="M42.465,6.406c-0.006,0.435-0.129,0.85-0.375,1.243c-0.24,0.385-0.6,0.696-1.079,0.937
			c-0.491,0.248-1.085,0.373-1.77,0.375c-1.137,0.006-2.082-0.317-2.848-0.967c-0.225-0.154-0.355-0.391-0.396-0.704
			c0-0.179,0.059-0.328,0.182-0.454c0.118-0.123,0.266-0.185,0.443-0.185c0.205,0,0.516,0.149,0.933,0.451
			c0.204,0.149,0.352,0.244,0.442,0.283c0.352,0.203,0.754,0.313,1.209,0.328c0.439,0.016,0.854-0.08,1.245-0.287
			c0.358-0.193,0.538-0.495,0.538-0.909c0-0.385-0.224-0.712-0.667-0.978c-0.282-0.168-0.702-0.364-1.26-0.588
			c-0.627-0.248-1.039-0.422-1.235-0.524c-0.447-0.23-0.799-0.502-1.052-0.812c-0.257-0.31-0.383-0.694-0.383-1.158
			c0-0.92,0.453-1.608,1.361-2.063c0.456-0.229,0.952-0.35,1.485-0.359c0.5-0.012,1.017,0.078,1.55,0.268
			c0.518,0.187,0.884,0.386,1.104,0.598c0.229,0.226,0.342,0.449,0.342,0.673c0,0.168-0.062,0.313-0.19,0.434
			c-0.126,0.122-0.275,0.19-0.447,0.205c-0.188-0.047-0.455-0.167-0.795-0.359c-0.469-0.264-0.733-0.41-0.791-0.438
			c-0.182-0.086-0.39-0.129-0.625-0.133c-0.504-0.008-0.893,0.096-1.158,0.31c-0.268,0.216-0.409,0.476-0.428,0.786
			c0.088,0.476,0.452,0.859,1.092,1.147c0.267,0.122,0.59,0.246,0.971,0.374c0.294,0.103,0.556,0.202,0.783,0.298
			c0.656,0.273,1.121,0.58,1.396,0.919C42.332,5.475,42.473,5.906,42.465,6.406"/>
	</g>
</g>
</svg>
