<svg version="1.1" id="Capa_1" xmlns="http://www.w3.org/2000/svg" x="0" y="0" viewBox="0 0 509 304" style="enable-background:new 0 0 509 304" xml:space="preserve"><style>.st0{fill:#006130}</style><path class="st0" d="m496.9 149.3.3 14.4c.2 8.8-9.7 13.2-16.6 14.7-14.6 3.3-30.7-.6-42.7-8.5-36.1-23.8-89.6-16.2-128.3 9.9l.2-1.1 69-51.3 118.1 21.9z"/><linearGradient id="SVGID_1_" gradientUnits="userSpaceOnUse" x1="500.635" y1="445.217" x2="315.768" y2="445.217" gradientTransform="translate(0 -292.6)"><stop offset="0" style="stop-color:#007b3d"/><stop offset=".66" style="stop-color:#009640"/><stop offset="1" style="stop-color:#afca0b"/></linearGradient><path d="m497.1 148.2.3 14.4c.2 8.8-9.7 13.2-16.6 14.8-14.6 3.3-30.7-.6-42.7-8.5-36.1-23.8-89.6-16.2-128.3 9.9l69.2-52.4 118.1 21.8z" style="fill:url(#SVGID_1_)"/><linearGradient id="SVGID_2_" gradientUnits="userSpaceOnUse" x1="344.348" y1="448.529" x2="497.348" y2="448.529" gradientTransform="translate(0 -292.6)"><stop offset="0" style="stop-color:#fed061"/><stop offset=".267" style="stop-color:#ef7d00"/><stop offset="1" style="stop-color:#c54409"/></linearGradient><path d="M497.3 154.1c-2.4 6.1-9.7 9.8-15.4 11.8-13.6 4.6-26.8 2.7-42.4-6.6-22.2-13.3-61.4-15.9-95.2-6.6l6.8-5.1c31.9-7.7 68-4.3 88.7 8.5 15.6 9.7 28.8 11.7 42.4 6.9 5.5-1.9 12.5-5.5 15.1-11.4v2.5z" style="fill:url(#SVGID_2_)"/><linearGradient id="SVGID_3_" gradientUnits="userSpaceOnUse" x1="406.607" y1="426.437" x2="404.266" y2="454.049" gradientTransform="translate(0 -292.6)"><stop offset="0" style="stop-color:#1d1d1b"/><stop offset="1" style="stop-color:#fff"/></linearGradient><path d="m496.9 148.2.3 14.4c.2 8.8-9.7 13.2-16.6 14.8-14.6 3.3-30.7-.6-42.7-8.5-36.1-23.8-89.6-16.2-128.3 9.9l69.3-52.4 118 21.8z" style="fill:url(#SVGID_3_)"/><path class="st0" d="M434 143.9c-39.9-3-86.6-1.2-120.8 2.8-101.7 12-188.7 58.5-305.7 156.5C20.9 254.7 34 206.3 38 158.3c-9.4-20.4-20.8-39.5-36.7-55.8L2 101C98.3 42.8 195.6 9 323 3.3c90.1-4 140.7 4.4 169 11.6 7.3 1.9 11.3 3.9 13.4 5.6 4.2 4.2.3 47.7-8 101.8-1.8 11.8 0 32.9-.4 41.7-.1-18.4-47.2-18.9-63-20.1z"/><radialGradient id="SVGID_4_" cx="350.381" cy="361.065" r="269.864" gradientTransform="translate(6.139 -275.635) scale(.9434)" gradientUnits="userSpaceOnUse"><stop offset="0" style="stop-color:#afca0b"/><stop offset=".806" style="stop-color:#009640"/><stop offset="1" style="stop-color:#007b3d"/></radialGradient><path d="M434.4 142.4c-39.9-3-86.5-1.2-120.7 2.8-101.6 12-188.5 58.5-305.4 156.5 13.4-48.5 26.5-96.9 30.5-144.9C29.5 136.4 18 117.3 2.2 101c97-59.1 193.2-93.5 321.4-99.2 90-4 140.6 4.4 168.9 11.6 7.3 1.9 11.3 3.9 13.4 5.6 4.2 4.2.3 47.7-8 101.8-1.8 11.8 0 33-.4 41.8-.2-18.5-47.3-19-63.1-20.2z" style="fill:url(#SVGID_4_)"/><radialGradient id="SVGID_5_" cx="264.85" cy="507.9" r="188.803" gradientTransform="translate(6.139 -275.635) scale(.9434)" gradientUnits="userSpaceOnUse"><stop offset="0" style="stop-color:#fed061"/><stop offset=".545" style="stop-color:#ef7d00"/><stop offset="1" style="stop-color:#c54409"/></radialGradient><path d="m15.4 275.9.1-.2v-.8l.1-.2v-.1l.1-.3V273.4v.1-1.3l.3-1V270.2l.1-.2v-.4l.1-.2v-.1l.1-.1V268.9c.5-2.1 1.1-4.1 1.6-6.2C160.2 157 249.9 136 339 131.4c54.2-2.8 123.8.4 157.4 11.8 0 1 0 2 .1 3-29.3-11.5-102.6-14.4-158.6-11.3-95.3 6-189 37.5-322.5 141z" style="fill:url(#SVGID_5_)"/><radialGradient id="SVGID_6_" cx="270.468" cy="363.157" r="189.283" gradientTransform="translate(6.139 -275.635) scale(.9434)" gradientUnits="userSpaceOnUse"><stop offset="0" style="stop-color:#fed061"/><stop offset=".545" style="stop-color:#ef7d00"/><stop offset="1" style="stop-color:#c54409"/></radialGradient><path d="M507.6 28.8C474.6 17.9 413 12.1 360 11.4h-20.1C251 12.6 152.5 30 14.9 115.9c1.6 2.2 3.2 4.3 4.7 6.6 120.9-79.3 225.2-105.7 318-107.6l23.5-.1c54.3.5 117.1 6.2 146.4 16.8.1-1 .1-1.9.1-2.8z" style="fill:url(#SVGID_6_)"/><path d="M3.3 104.6v-4.2m1.9 6.3v-7.5m2 9.7V98.1M9.1 302v-4.3m0-186.6V96.9M11 300.4v-9.7m0-177.3V95.7m1.9 203.1v-15.1m0-167.8V94.7m2 202.5v-20.7m0-158.1V93.5m1.9 202.1v-26.3m0-148.3V92.3M18.7 294v-32m0-138.2V91.3m1.9 201.1v-38m0-127.8V90.1m1.9 200.7v-44.2m0-117V89.1m2 200.2v-50.6m0-106.1V87.9m1.9 199.8v-57.4m0-94.4v-49m1.9 199.3v-64.7m0-82.3V85.7m2 198.9v-72.5m0-69.4v-58M32.2 283v-81.1m0-55.6V83.6m1.9 197.9v-90.9m0-40.5V82.5M36 280V177.3m0-23.2V81.5m1.9 196.9V159.5m0-1.3V80.5m2 196.4V79.4m1.9 196v-197m1.9 195.5V77.3m2 195.1V76.3m1.9 194.6V75.3m1.9 194.1V74.3m1.9 193.6V73.3m1.9 193.1V72.3m2 192.6V71.3m1.9 192.1V70.3M59.1 262V69.3M61 260.5V68.4m2 190.7V67.4m1.9 190.2V66.5m1.9 189.7V65.5m1.9 189.3V64.6m2 188.7V63.7m1.9 188.2V62.7m1.9 187.8V61.8m2 187.3V60.9m1.9 186.8V60m1.9 186.3V59.1m1.9 185.8V58.2m1.9 185.4V57.4m2 184.8V56.5M88 240.8V55.6m1.9 183.9V54.8m1.9 183.3V53.9m2 182.9V53.1m1.9 182.4V52.3m1.9 181.8V51.4m1.9 181.4V50.6m2 180.9V49.8m1.9 180.4V49m1.9 179.9V48.2m1.9 179.5V47.4m2 179V46.7m1.9 178.4V45.9m1.9 178V45.1m1.9 177.5V44.4m2 177V43.6m1.9 176.5V42.9m1.9 176V42.1m1.9 175.6V41.4m2 175.1V40.7m1.9 174.6V40m1.9 174.1V39.3m1.9 173.6V38.6m2 173.2V37.9m1.9 172.7V37.2m1.9 172.3v-173m1.9 171.8V35.9m2 171.3v-172m1.9 170.9V34.5m1.9 170.5V33.9m1.9 170V33.2m2 169.6V32.6m1.9 169.1V32m1.9 168.6V31.4m1.9 168.1V30.8m2 167.7V30.2m1.9 167.2V29.6m1.9 166.8V29m1.9 166.4v-167m1.9 166V27.8m2 165.6V27.2m1.9 165.1V26.7m1.9 164.7V26.1m2 164.3V25.6m1.9 163.8V25m1.9 163.5v-164m1.9 163V24m2 162.6V23.5m1.9 162.2V22.9m1.9 161.8V22.5m1.9 161.3V22m2 160.9V21.5m1.9 160.6V21m1.9 160.2V20.5m1.9 159.8V20m2 159.5V19.6m1.9 159V19.1m1.9 158.7V18.6m1.9 158.4V18.2m1.9 158V17.8m2 157.6v-158m1.9 157.2V16.9m1.9 156.9V16.5m2 156.5V16m1.9 156.3V15.7m1.9 155.8V15.3m1.9 155.5V14.9m1.9 155.2V14.5m2 154.8V14.1m1.9 154.5V13.7m1.9 154.2V13.4m1.9 153.9V13m2 153.6v-154m1.9 153.3V12.3m1.9 153V11.9m2 152.7v-153m1.9 152.4V11.3m1.9 152.1V10.9m1.9 151.9V10.6m1.9 151.6V10.3m2 151.3V10m1.9 151V9.7m1.9 150.7V9.4m1.9 150.5V9.1m2 150.2V8.8m1.9 150V8.5m1.9 149.7V8.2m1.9 149.5V8m2 149.2V7.7m1.9 149V7.5m1.9 148.7V7.2m1.9 148.6V7m2 148.3V6.7m1.9 148.1V6.5m1.9 147.9V6.3m1.9 147.6V6.1m2 147.4V5.8m1.9 147.3V5.6m1.9 147.1V5.4m1.9 146.9V5.2m2 146.7V5m1.9 146.5V4.8m1.9 146.4V4.6m1.9 146.2V4.4m2 146V4.3m1.9 145.8V4.1m1.9 145.7V3.9m1.9 145.6V3.8m2 145.4V3.6m1.9 145.2V3.5m1.9 145V3.3m1.9 145V3.2m2 144.8V3m1.9 144.7V2.9m1.9 144.6V2.8m1.9 144.4V2.6m2 176v-.9m0-30.7V2.5m1.9 174.8v-1.1m0-29.5V2.4m1.9 173.7v-1.3m0-28.3V2.3M317 175v-1.6m0-27.1V2.2m2 171.7V172m0-25.9V2.1m1.9 170.7v-2.3m0-24.6V2m1.9 169.8v-2.7m0-23.4V1.9m1.9 168.8v-3.1m0-22.1V1.8m2 168v-3.6m0-20.9V1.8m1.9 167v-4.1m0-19.6V1.7m1.9 166.3v-4.6m0-18.4V1.6m1.9 165.5v-5.2m0-17.1V1.5m2 164.8v-5.8m0-15.8V1.5m1.9 164v-6.4m0-14.6V1.4m1.9 163.3v-7.1m0-13.2V1.4m1.9 162.6v-7.8m0-12V1.2m2 162.1v-8.6m0-10.6V1.2m1.9 161.4v-9.3m0-9.3V1.2m1.9 160.8v-10.1m0-8.1V1.1m1.9 160.3v-10.9m0-6.8V1.1m2 159.7V149m0-5.4V1m1.9 159.2v-12.7m0-4V1m1.9 158.7v-13.6m0-2.7V1m1.9 158.2v-14.5m0-1.4V.9m1.9 157.8v-15.5m0 0V.9m2 157.4V.9m1.9 157V.9m1.9 156.6V.9m2 156.3V.8m1.9 156V.8m1.9 155.7V.8m1.9 155.5V.8m2 155.2V.9m1.9 154.9V.8m1.9 154.9V.9m1.9 154.6V.9m2 154.5V.9m1.9 154.4V1m1.9 154.3V1m1.9 154.2V1m2 154.3V1.1m1.9 154.2V1.1m1.9 154.3V1.2m1.9 154.3V1.2m2 154.4V1.3m1.9 154.5V1.4m1.9 154.6V1.4m1.9 154.9V1.5m1.9 155.1V1.6m2 155.3V1.7m1.9 155.5V1.8m1.9 155.8V1.9m1.9 156.2V2m2 156.6V2.1m1.9 157V2.2m1.9 157.5V2.4m2 157.9V2.5M421 161V2.6m1.9 159.1V2.8m1.9 159.7V2.9m1.9 160.4V3.1m2 161.1V3.2m1.9 162V3.4m1.9 162.8V3.6m1.9 163.7V3.8m2 164.6V4m1.9 165.6V4.2m1.9 166.6V4.4m1.9 167.6V4.6m2 168.4V4.8m1.9 169.1V5m1.9 169.7V5.3m1.9 170.2V5.5m2 170.7V5.8m1.9 171V6m1.9 171.3V6.3m1.9 171.5V6.6m2 171.6V6.9m1.9 171.7V7.2m1.9 171.6V7.5m1.9 171.6V7.8m2 171.4V8.1m1.9 171.2V8.5m1.9 170.8V8.8m1.9 170.4V9.2m2 169.9V9.5m1.9 169.3V9.9m1.9 168.6V10.3m1.9 167.8V10.7m2 167V11.1m1.9 166V11.5m1.9 164.9V12m1.9 163.5v-163m2 161.9V12.9m1.9 160.2V13.4m1.9 158V13.9m1.9 155V14.5m1.9 105.5V15.1m2 92.1V15.8m1.9 77.7V16.7m1.9 61.8V17.6m2 43.6V18.9" style="opacity:.18;fill:none;stroke:#1d1d1b;stroke-width:1.5616;stroke-linejoin:round;stroke-miterlimit:22.9256;enable-background:new"/><path d="M432.1 29.3c-6.4 5.8-11.4 12.8-15.1 21.3-3.6 8.5-5.9 18.7-6.8 30.7-.6 7.5.1 14.5 1.9 20.8s4.8 11.9 8.7 16.7c4.1 5 8.5 6.9 13 6.6 4.9-.3 9.8-3.1 14-7.1 6.6-5.1 12.2-13.5 14.9-20.8 2-5.5 3.5-11.5 4.5-17.6s1.7-12.4 2.1-18.4c2.3-3.7 2.7-7.7 2.8-11.7 0-1.7-.9-2.3-1.8-1.5-.7.6-1 1.5-1.8 1.7.2-11-3.4-17.7-9.4-20.6-4.1-1.9-7.9-1.5-10 1.6-1.7.8-3.1 2.3-3.7 4.8-.1.5-.2.9-.4 1.4-1.6-2.9-3.5-5.6-5.1-8.4-1.4-2.4-2.8-3.1-4.3-2.4-.5.2-2.8 2.3-3.5 2.9zm11.8 13.9c-.8 5.6-1 11.5-.3 17.2 1.5 6.1 5 8.1 8.2 7.7-1 7.6-2.5 15-4.8 21.7-2.2 6.5-5.3 12.3-9.6 17.2-1.7.8-3.5.5-5.2-3-3.5-7.2-4.5-14.9-3.9-23 .6-8 2.9-16.5 6.1-25 3.3-6 6.4-10.4 9.5-12.8zm-53.5-19.9c5-.4 10 1.5 15 3.7 3.3 1.5 3.3 3.7 2.9 6.5-.6 4.6-.3 9.5-.8 14.2-.4 4.2-2.9 4.3-4.6 2.4-5.4-5.6-10.3-7.4-15.3-8.1-.3 0-.7-.1-1 0-.2.8-.2 1.7.1 2.8 1.6 8 3.9 14.6 6.5 21.2s5.5 13 8.1 20.4c2.3 6.4 3.2 18.9-5.6 27.4-.6.6-1.3 1.1-2 1.6-.2.2-.4.5-.7.7-10.1 9.7-29.8 1.9-31.4-12.9-.1-1.3-.1-2.4.2-3.2 1-3 2.3-3.6 4.1-3.6.4 0 .9.2 1.5.6 3.8 2.8 10.8 4.9 16.1 3.7.2-.8.2-1.9-.2-3.5-2-8.8-4.4-14.7-6.7-20.3-2-4.6-4.5-10.1-6-15.7-1.5-5.7-2.1-11.6-.4-17.2 2.2-7.2 5.9-12.4 10.1-15.4 3.2-3.2 6.7-5 10.1-5.3zm-54.5 0c.7-.3 1.6-.6 2.6-.9 3.6-1.1 7.4-1.1 11.2-1.1 6.4 0 9.8 3.9 9.7 10.3-.2 13.1-2.1 29-4.7 43.1s-6.3 26.6-9.9 32.9c-2.2 3.8-5 7.1-8 9.2-4.7 4.6-10 6.6-13.6 2.6-3.7-4-6.9-8-9.6-12.6-1.3-2.3-2-4.9 1.2-9.7 2.7-4.3 4.8-9 7.9-12.8 3.1-3.9 4.5-4 4.8-4.1.9-.2 1.3.6 1.1 1.8-1 6.1-2 12.1 1 17.8.2.4.4.6.6.8 2.8-8.9 5-18.4 6.8-28.3 1.9-10.2 3.3-20.9 4.7-31.8-6.8 1-12.9 3.5-18.4 6.5-.9.5-1.8.4-1.4-1.2 1.2-4.8 2.2-9.9 4.8-14.4 2.9-4.9 5.8-6.6 9.2-8.1zm-64.6 6.3c-5.3 1.6-9.7 4.4-13.1 11.6-2.5 5.2-4.3 10.7-6.2 16.1-1.4 4.1.4 3.5 2.8 2 4.7-2.9 9.4-5.8 14.3-7.9 7.9-3.4 15.8-5.5 21.9-3 3.7 1.5 5.2 6.1 5.2 12.4-.1 6.3-1.8 14.5-4.8 23.2-3.3 9.7-7.5 16.9-12.3 21.5-2.3 1.7-4.6 2.8-6.9 3.4-1.4.3-1.5-.7-1.3-2 1.4-8.8 3.1-17.7 5.1-26.7 1.9-8.9 4.2-18 7.1-27.2.9-2.8.6-5.1-2.9-3.2-3.9 2.2-7.8 3.9-11.7 6.4-.7.4-1.3 1-1.8 1.7l-.9.6c-2.4 1.6-3.5 4.9-4.3 8.4-1.9 8.3-3.5 15.9-4.8 23.7-1.3 7.9-2.5 16-3.6 25.5-.6 5.4 1.1 7.9 3 9 5.3 3.1 10.5 4.6 15.9 2.7 6.1-2.3 11.3-5.6 15.7-9.6 4.8-3.9 8.7-8.5 11.8-13.5 4.4-7.1 8.3-15.8 10.9-24.8s3.9-18.3 3.4-26.7c-.9-15-7-23.4-13.6-25.6-9.2-2.9-19-1.1-28.9 2zm-63.6 42.7c2.3-2 4.6-3.9 6.8-5.8.6-.5 1.2-1.1 1.8-1.6.4-.4.7-.6 1-.8.6-.5 1.1-1 1.7-1.5 2.6-2.4 2.5-.7 1.8 3.1-1.1 6.3-2.3 12.4-3.4 18.4-1.1 5.7-2.2 11.2-3.3 16.6 3.1-3.5 6.1-7.3 8.8-11.7 3.4-5.7 6.4-12.7 8.1-22 1.4-7.5.8-14.9-9.2-10.7-3.7 1.6-7.1 3.7-10.2 6.3-3.5 3.1-6.8 6.6-10.2 10.2-.3.4-.7.6-1.1.7l-1.5 1.6c-.9.9-2.2 1.1-3-.4-1.9-3.3-2.7-6.7-2.9-11.2 0-1.1-.2-2.6 1.4-4.1 2.8-2.7 5.6-5.2 8.4-7.6 7-6.1 13.9-11.1 20.6-13.7 8.7-3.3 16-2.4 21 2.9 2.9 3 4.6 6.9 4.8 11.8s-1.1 11-4.4 18.5c-4.8 11.1-12.1 21.3-20.3 31.2 2.1 4.2 3.3 8.9 3.8 14.1.2 2.3 1.2 1.7 2.2 1.1 1.6-1.1 3.1-2.1 4.5-3.3 1.8-1.7 3.5-3.4 5-5.2.9-1.1 1.6-1.5 1.9-1.4.2-.3.5-.5.7-.8 2.1-2.4 2.7-1.7 2.2 1.2-1.7 10.4-5.2 19.6-12.7 25.3l-.2.2-2.4 2.1c-5.1 3.9-10.1 4.8-13.1.2-3.2-5-5.2-10.8-6.8-16.9-2.2 7.8-4.6 14.9-7.5 21.1-1.7 3.6-3.7 6-5.8 7.2-3.2 3.6-6.8 4.2-9.6 2.7-1.8-1-3-3-4.6-4.3-1.4-1.1-1.8-3.2-.3-7.2 1.8-4.7 3.9-9.3 5.6-14 1.1-2.6 2.3-4.5 4-4.1.5-.1.9.3 1.2 1.3.5 1.6.6 3.4 1.1 5.1.9-6.5 1.7-13 2.7-19.6 1.1-7.3 2.3-14.9 4-22.7.9-4 1.8-7.5 4.7-10.1 1-.7 1.8-1.5 2.7-2.2zm-70.9 113.8c.2-.6.3-1.3.5-2.1 1-7 1.8-13.7 2.8-20.6.9-6.5 2-13.3 3.6-21 5.6-1.7 11.3-4 17.2-6.6-.5 3.2-1.1 6.4-1.7 9.5-1.2 5.3.1 6 1.7 6.9 2.6 1.3 5.3 2.6 7.9 4.1 3.2 1.9 5.5-.8 6.4-3.1.3-.7.6-1.6.8-2.7 3-16.5 4.7-31.8 5-46.2.3-14.3-.8-27.7-3.2-40.3-.4-2.4-1.3-4.6-4.1-5.3-2.7-.7-5.3-1.4-8.1-1.7s-4.3.9-5.4 2.5c-1.6.6-2.5 1.8-3.2 3.3-5.3 10.1-10.1 20.5-14.3 31.2-4 10.1-7.6 20.5-10.7 31.2-2.5.1-4.8-.1-7-.5-4.1-.5-5.3 2-5.5 5.2-.4 8 0 15.6 4.5 15.7h2.5c-1.3 5.6-2.5 11.3-3.6 17-1 5.7-2 11.5-2.8 17.4-.4 3.2.1 4.6 1.5 5.2 3.5 1.4 6.9 2.9 10.3 4.5 1.9 1.3 3.7.9 4.9-3.6zm11.7-63.7c1.7-6.2 3.8-13 6.3-20.4 1.9-5.9 4.3-12.2 6.9-19.1.6 4.7 1 9.9 1.2 15.3.2 6.3.2 12.9-.2 19.6-5 1.9-9.8 3.5-14.2 4.6zm-44.3 3.1c-1.1 1-2.2 2-3.4 2.8-.8.5-1.7.8-1-3.5.9-5.5 1.9-11.1 1.8-16.1 0-.4 0-.8-.1-1.1l-.1.2c-4.5 10.9-8.2 21.5-10.7 32-2.5 10.4-3.8 20.5-3.5 30.1.1 2.6 1.9 2.3 3.9 1.2 3.3-1.7 6.7-4 10.2-6.9 2.6-2.3 5.2-4.9 7.8-7.8 1.2-1.3 2-1.9 2.5-2.1l.1-.2c3.6-4.1 4-1.9 3.3 2.1-2.2 12.3-5.3 19.6-8.6 23.1-3.1 3.3-6.2 6.3-9.5 9-3 2.7-6.1 5.1-9.3 7.1-8.7 5.7-15.5 5.6-18.3-3.1-2-6.2-2.5-13.6-1.8-21.7.6-8.1 2.3-17.1 4.8-26.4 2.7-10.3 6-19.9 10.1-28.8s8.8-17.1 14.2-24.1c1.6-2.1 3.3-3.7 4.9-4.9 4.1-4.2 8.3-5.3 11.9-3.9s5.7 7.1 6.6 16.1c.6 5.6-.5 8.7-2.1 10.9-4.4 6-8.8 12.2-13.7 16z" style="fill:#1d1d1b"/><path d="M448.1 35.5c-1.6-3.2-3.7-6-5.4-9.1-1.7-3-3.5-3.3-5.3-1.7C431 30.5 426 37.5 422.3 46s-5.9 18.7-6.8 30.7c-.6 7.6.1 14.5 1.9 20.8s4.8 11.9 8.7 16.7c4.1 5 8.5 6.9 13 6.6 11.2-.6 22-14.4 26.2-25.6 2-5.5 3.5-11.5 4.5-17.6s1.7-12.4 2.1-18.4c2.2-3.7 2.8-7.7 2.8-11.7 0-1.7-.9-2.3-1.8-1.5-.8.6-1.1 1.5-1.8 1.7.2-11-3.3-17.7-9.3-20.6-5-2.4-9.7-1.3-11.1 4.1-2.1 7.7-2.9 16.4-1.9 24.7 1.6 6.1 5 8.1 8.2 7.7-1 7.6-2.5 15-4.8 21.7s-5.5 12.8-10.1 17.8c-1.9 2.1-4.9 3.9-7.3-1.3-3.5-7.2-4.4-14.9-3.9-23 .6-8 2.9-16.5 6.1-25 3.3-6.3 6.5-10.7 9.8-13.2 1.6-1.1 2.7-2.5 1.3-5.1zm-55-14.4c5-.4 10 1.5 15 3.7 3.3 1.5 3.3 3.7 2.9 6.5-.6 4.6-.4 9.5-.8 14.2-.1 1-1 1.2-2 .1-5.4-5.6-10.3-7.4-15.3-8.1-3-.4-4.3 1.8-3.6 5 1.6 8 3.9 14.7 6.5 21.2 2.6 6.6 5.5 13 8.1 20.4 2.3 6.4 3.2 18.9-5.6 27.4-10.1 9.7-29.8 1.9-31.4-12.9-.4-3.5.8-5.6 3.1-3.9 3.8 2.8 10.8 4.9 16.1 3.6 1.9-.4 3.4-1.5 2.5-5.7-2-8.8-4.4-14.7-6.7-20.3-2-4.6-4.5-10.1-6-15.7-1.5-5.7-2.1-11.6-.4-17.2 3.5-11.3 10.9-17.8 17.6-18.3zm-46.1 15c-6.8 1-12.9 3.5-18.4 6.5-.9.5-1.8.4-1.4-1.2 1.1-4.8 2.3-9.8 4.8-14.4 1.4-2.5 3.2-5.2 9.1-7 3.6-1.1 7.4-1.1 11.2-1.1 6.4 0 9.8 3.9 9.7 10.3-.2 13.1-2.1 29-4.7 43.1-2.7 14.1-6.3 26.6-10 32.9-5.2 8.9-13.8 15.1-18.9 9.6-3.7-4-6.9-8-9.6-12.6-1.3-2.3-1.9-4.9 1.2-9.7 2.7-4.3 4.8-9 7.9-12.8 2.3-2.8 3.6-2.1 3.3 0-1 6.1-2 12.1 1 17.8.9 1.8 2.3 1.5 2.9-.4 3-9.2 5.3-19 7.2-29.3 1.8-10.2 3.3-20.9 4.7-31.7zM274.5 47c7.9-3.4 15.8-5.5 21.9-3 3.7 1.5 5.2 6.1 5.2 12.4-.1 6.3-1.9 14.5-4.8 23.2-5.4 16-13.6 25.2-21.9 27.1-1.4.3-1.4-.7-1.3-2 1.4-8.8 3.1-17.7 5.1-26.7 1.9-8.9 4.2-18 7.1-27.2.8-2.8.6-5.1-2.9-3.2-3.8 2.2-7.9 4-11.7 6.4-2.4 1.6-3.5 4.9-4.3 8.4-2 8.3-3.5 15.9-4.8 23.7-1.3 7.9-2.5 16-3.6 25.5-.6 5.4 1.1 7.9 3 9 5.3 3.1 10.5 4.6 15.8 2.7 11.3-4.2 19.4-12 24.8-20.8 4.4-7.1 8.3-15.8 10.9-24.8s3.9-18.3 3.4-26.7c-.9-15-7-23.4-13.6-25.6-9.2-3-19-1.1-28.9 2-5.3 1.6-8.4 4.9-10.4 9.3-2.4 5.2-4.3 10.7-6.1 16.2-1.4 4.1.4 3.5 2.8 2 4.7-3 9.4-5.9 14.3-7.9zm-64.1 23c3.8-3.3 7.6-6.4 11.3-9.7 2.7-2.4 2.5-.7 1.8 3.1-1.1 6.3-2.3 12.4-3.4 18.4s-2.3 11.8-3.5 17.4c4.1-4.4 8.1-9.1 11.6-14.8 3.4-5.7 6.4-12.8 8.1-22 1.4-7.5.9-14.9-9.2-10.7-8.9 3.8-15.7 11.1-23 18.8-.9.9-2.2 1.1-3-.4-1.9-3.3-2.7-6.7-2.9-11.2 0-1.1-.2-2.6 1.4-4.1 8.9-8.5 17.8-15.7 26.4-19 8.8-3.3 16-2.4 21 2.9 2.9 3 4.6 6.9 4.8 11.8s-1.1 11-4.4 18.5c-4.8 11.1-12.1 21.3-20.2 31.2 2.1 4.2 3.3 8.9 3.8 14.1.2 2.3 1.2 1.7 2.2 1.1 5.1-3.3 8.8-6.8 12.2-10.8 2.1-2.4 2.6-1.7 2.2 1.2-1.7 10.4-5.2 19.6-12.7 25.3-5.1 3.9-10.1 4.8-13.1.2-3.9-6.1-6-13.3-7.7-21.1-2.6 10.4-5.5 19.7-9.2 27.6s-9.1 9.7-12.7 7.7c-1.8-1-3-3-4.6-4.3-1.4-1.1-1.8-3.2-.3-7.2 1.8-4.7 3.9-9.3 5.6-14.1.7-2.1 2-2.5 2.6-.5.5 1.8.6 3.9 1.3 5.7.5 1.3 1.8 1.3 2.1-.7 1.1-7.2 1.9-14.4 3-21.8 1.1-7.3 2.3-14.9 4-22.7.7-3.8 1.6-7.4 4.5-9.9zm-85.1 105.4c-.4 3.2.1 4.6 1.5 5.2 3.5 1.4 6.9 2.9 10.3 4.5 1.7.8 2.4-.6 2.8-3.3 1-7 1.8-13.7 2.7-20.6.9-7 2.1-14.3 3.9-22.6 6.3-1.8 12.8-4.3 19.5-7.3-.5 3.2-1.1 6.4-1.7 9.5-1.2 5.3.1 6 1.7 6.9 2.6 1.3 5.2 2.7 7.9 4.1 2.7 1.5 3.8.3 4.5-3.5 3-16.5 4.7-31.8 5-46.1s-.8-27.7-3.2-40.3c-.5-2.4-1.3-4.6-4.1-5.3-2.7-.7-5.3-1.4-8.1-1.7-3.3-.4-4.9 1.4-6 3.5-5.3 10.1-10.1 20.5-14.4 31.2-4.3 10.8-8.1 21.9-11.4 33.4-3.2.2-6.2.1-9-.4-1.7-.3-2.7.9-2.8 3-.3 8 0 15.6 4.5 15.7h2.5c-1.3 5.6-2.6 11.3-3.6 17-.7 5.5-1.6 11.3-2.5 17.1zm25.9-55.2c1.7-6.2 3.8-13 6.3-20.4s5.5-15.7 9-24.8c.9 5.6 1.5 12 1.7 18.7s.2 13.8-.3 20.9c-6 2.3-11.6 4.2-16.7 5.6zm-46.1 0c-.7 4.3.2 4.1 1 3.5 5.2-3.7 9.8-10.2 14.5-16.5 1.7-2.2 2.7-5.4 2.1-10.9-.9-9.1-3.1-14.7-6.6-16.1-4.3-1.7-9.4.3-14.2 6.5-5.4 7-10.2 15.2-14.2 24.1s-7.4 18.5-10.1 28.8c-2.4 9.3-4.2 18.3-4.8 26.4-.6 8.2-.1 15.6 1.8 21.8 2.8 8.7 9.5 8.8 18.3 3.1 5.5-3.5 10.8-8.2 16.1-13.8 3.3-3.5 6.4-10.8 8.6-23.1.7-4 .4-6.1-3.3-2.1-7.1 8-14.1 13.6-20.6 17-2 1-3.8 1.4-3.9-1.2-.3-9.6 1-19.7 3.5-30.1s6.2-21.1 10.7-32c1.7-4.2 2.7-4.7 2.8-1.4.2 4.9-.9 10.5-1.7 16z" style="fill:#fff"/></svg>