<?xml version="1.0" encoding="utf-8"?>
<!-- Generator: Adobe Illustrator 21.0.0, SVG Export Plug-In . SVG Version: 6.00 Build 0)  -->
<svg version="1.1" id="Capa_1" xmlns="http://www.w3.org/2000/svg" xmlns:xlink="http://www.w3.org/1999/xlink" x="0px" y="0px"
	 viewBox="0 0 509 304" style="enable-background:new 0 0 509 304;" xml:space="preserve">
<style type="text/css">
	.st0{fill:#006130;}
	.st1{fill:url(#SVGID_1_);}
	.st2{fill:url(#SVGID_2_);}
	.st3{fill:url(#SVGID_3_);}
	.st4{fill:url(#SVGID_4_);}
	.st5{fill:url(#SVGID_5_);}
	.st6{fill:url(#SVGID_6_);}
	
		.st7{opacity:0.18;fill:none;stroke:#1D1D1B;stroke-width:1.5616;stroke-linejoin:round;stroke-miterlimit:22.9256;enable-background:new    ;}
	.st8{fill:#1D1D1B;}
	.st9{fill:#FFFFFF;}
</style>
<g>
	<g>
		<path class="st0" d="M496.9,149.3l0.3,14.4c0.2,8.8-9.7,13.2-16.6,14.7c-14.6,3.3-30.7-0.6-42.7-8.5
			c-36.1-23.8-89.6-16.2-128.3,9.9l0.2-1.1l69-51.3L496.9,149.3z"/>
	</g>
	
		<linearGradient id="SVGID_1_" gradientUnits="userSpaceOnUse" x1="500.6346" y1="445.217" x2="315.7684" y2="445.217" gradientTransform="matrix(1 0 0 1 0 -292.6)">
		<stop  offset="0" style="stop-color:#007B3D"/>
		<stop  offset="0.66" style="stop-color:#009640"/>
		<stop  offset="1" style="stop-color:#AFCA0B"/>
	</linearGradient>
	<path class="st1" d="M497.1,148.2l0.3,14.4c0.2,8.8-9.7,13.2-16.6,14.8c-14.6,3.3-30.7-0.6-42.7-8.5
		c-36.1-23.8-89.6-16.2-128.3,9.9l69.2-52.4L497.1,148.2z"/>
	
		<linearGradient id="SVGID_2_" gradientUnits="userSpaceOnUse" x1="344.3479" y1="448.5286" x2="497.3479" y2="448.5286" gradientTransform="matrix(1 0 0 1 0 -292.6)">
		<stop  offset="0" style="stop-color:#FED061"/>
		<stop  offset="0.2667" style="stop-color:#EF7D00"/>
		<stop  offset="1" style="stop-color:#C54409"/>
	</linearGradient>
	<path class="st2" d="M497.3,154.1L497.3,154.1c-2.4,6.1-9.7,9.8-15.4,11.8c-13.6,4.6-26.8,2.7-42.4-6.6
		c-22.2-13.3-61.4-15.9-95.2-6.6l6.8-5.1c31.9-7.7,68-4.3,88.7,8.5c15.6,9.7,28.8,11.7,42.4,6.9c5.5-1.9,12.5-5.5,15.1-11.4
		L497.3,154.1z"/>
	
		<linearGradient id="SVGID_3_" gradientUnits="userSpaceOnUse" x1="406.6074" y1="426.4371" x2="404.2663" y2="454.0492" gradientTransform="matrix(1 0 0 1 0 -292.6)">
		<stop  offset="0" style="stop-color:#1D1D1B"/>
		<stop  offset="1" style="stop-color:#FFFFFF"/>
	</linearGradient>
	<path class="st3" d="M496.9,148.2l0.3,14.4c0.2,8.8-9.7,13.2-16.6,14.8c-14.6,3.3-30.7-0.6-42.7-8.5
		c-36.1-23.8-89.6-16.2-128.3,9.9l69.3-52.4L496.9,148.2z"/>
	<g>
		<path class="st0" d="M434,143.9c-39.9-3-86.6-1.2-120.8,2.8c-101.7,12-188.7,58.5-305.7,156.5C20.9,254.7,34,206.3,38,158.3
			c-9.4-20.4-20.8-39.5-36.7-55.8L2,101C98.3,42.8,195.6,9,323,3.3c90.1-4,140.7,4.4,169,11.6c7.3,1.9,11.3,3.9,13.4,5.6
			c4.2,4.2,0.3,47.7-8,101.8c-1.8,11.8,0,32.9-0.4,41.7C496.9,145.6,449.8,145.1,434,143.9z"/>
	</g>
	<g>
		
			<radialGradient id="SVGID_4_" cx="350.3806" cy="361.0646" r="269.8636" gradientTransform="matrix(0.9434 0 0 0.9434 6.1386 -275.6349)" gradientUnits="userSpaceOnUse">
			<stop  offset="0" style="stop-color:#AFCA0B"/>
			<stop  offset="0.8061" style="stop-color:#009640"/>
			<stop  offset="1" style="stop-color:#007B3D"/>
		</radialGradient>
		<path class="st4" d="M434.4,142.4c-39.9-3-86.5-1.2-120.7,2.8c-101.6,12-188.5,58.5-305.4,156.5c13.4-48.5,26.5-96.9,30.5-144.9
			C29.5,136.4,18,117.3,2.2,101c97-59.1,193.2-93.5,321.4-99.2c90-4,140.6,4.4,168.9,11.6c7.3,1.9,11.3,3.9,13.4,5.6
			c4.2,4.2,0.3,47.7-8,101.8c-1.8,11.8,0,33-0.4,41.8C497.3,144.1,450.2,143.6,434.4,142.4z"/>
	</g>
	
		<radialGradient id="SVGID_5_" cx="264.8498" cy="507.9002" r="188.8025" gradientTransform="matrix(0.9434 0 0 0.9434 6.1386 -275.6349)" gradientUnits="userSpaceOnUse">
		<stop  offset="0" style="stop-color:#FED061"/>
		<stop  offset="0.5455" style="stop-color:#EF7D00"/>
		<stop  offset="1" style="stop-color:#C54409"/>
	</radialGradient>
	<path class="st5" d="M15.4,275.9l0.1-0.2v-0.2v-0.1v-0.1v-0.2V275v-0.1l0.1-0.2v-0.1l0.1-0.3l0,0v-0.2V274v-0.1v-0.1v-0.1v-0.1
		v-0.1v-0.1v0.1v-0.1v-0.1v-0.1v-0.1V273v-0.1v-0.1v-0.1v-0.1v-0.1v-0.1v-0.1v-0.1l0.3-1v-0.1V271v-0.1v-0.1v-0.1v-0.1v-0.1v-0.1
		v-0.1v-0.1l0.1-0.2v-0.2v-0.2l0.1-0.2v-0.1l0.1-0.1v-0.1V269v-0.1c0.5-2.1,1.1-4.1,1.6-6.2C160.2,157,249.9,136,339,131.4
		c54.2-2.8,123.8,0.4,157.4,11.8c0,1,0,2,0.1,3c-29.3-11.5-102.6-14.4-158.6-11.3C242.6,140.9,148.9,172.4,15.4,275.9z"/>
	
		<radialGradient id="SVGID_6_" cx="270.4677" cy="363.1566" r="189.2829" gradientTransform="matrix(0.9434 0 0 0.9434 6.1386 -275.6349)" gradientUnits="userSpaceOnUse">
		<stop  offset="0" style="stop-color:#FED061"/>
		<stop  offset="0.5455" style="stop-color:#EF7D00"/>
		<stop  offset="1" style="stop-color:#C54409"/>
	</radialGradient>
	<path class="st6" d="M507.6,28.8C474.6,17.9,413,12.1,360,11.4h-20.1C251,12.6,152.5,30,14.9,115.9c1.6,2.2,3.2,4.3,4.7,6.6
		c120.9-79.3,225.2-105.7,318-107.6l23.5-0.1c54.3,0.5,117.1,6.2,146.4,16.8C507.6,30.6,507.6,29.7,507.6,28.8z"/>
	<path class="st7" d="M3.3,104.6v-4.2 M5.2,106.7v-7.5 M7.2,108.9V98.1 M9.1,302v-4.3 M9.1,111.1V96.9 M11,300.4v-9.7 M11,113.4
		V95.7 M12.9,298.8v-15.1 M12.9,115.9V94.7 M14.9,297.2v-20.7 M14.9,118.4V93.5 M16.8,295.6v-26.3 M16.8,121V92.3 M18.7,294v-32
		 M18.7,123.8V91.3 M20.6,292.4v-38 M20.6,126.6V90.1 M22.5,290.8v-44.2 M22.5,129.6V89.1 M24.5,289.3v-50.6 M24.5,132.6V87.9
		 M26.4,287.7v-57.4 M26.4,135.9v-49 M28.3,286.2v-64.7 M28.3,139.2V85.7 M30.3,284.6v-72.5 M30.3,142.7v-58 M32.2,283v-81.1
		 M32.2,146.3V83.6 M34.1,281.5v-90.9 M34.1,150.1V82.5 M36,280V177.3 M36,154.1V81.5 M37.9,278.4V159.5 M37.9,158.2V80.5
		 M39.9,276.9V79.4 M41.8,275.4v-197 M43.7,273.9V77.3 M45.7,272.4V76.3 M47.6,270.9V75.3 M49.5,269.4V74.3 M51.4,267.9V73.3
		 M53.3,266.4V72.3 M55.3,264.9V71.3 M57.2,263.4V70.3 M59.1,262V69.3 M61,260.5V68.4 M63,259.1V67.4 M64.9,257.6V66.5 M66.8,256.2
		V65.5 M68.7,254.8V64.6 M70.7,253.3V63.7 M72.6,251.9V62.7 M74.5,250.5V61.8 M76.5,249.1V60.9 M78.4,247.7V60 M80.3,246.3V59.1
		 M82.2,244.9V58.2 M84.1,243.6V57.4 M86.1,242.2V56.5 M88,240.8V55.6 M89.9,239.5V54.8 M91.8,238.1V53.9 M93.8,236.8V53.1
		 M95.7,235.5V52.3 M97.6,234.1V51.4 M99.5,232.8V50.6 M101.5,231.5V49.8 M103.4,230.2V49 M105.3,228.9V48.2 M107.2,227.7V47.4
		 M109.2,226.4V46.7 M111.1,225.1V45.9 M113,223.9V45.1 M114.9,222.6V44.4 M116.9,221.4V43.6 M118.8,220.1V42.9 M120.7,218.9V42.1
		 M122.6,217.7V41.4 M124.6,216.5V40.7 M126.5,215.3V40 M128.4,214.1V39.3 M130.3,212.9V38.6 M132.3,211.8V37.9 M134.2,210.6V37.2
		 M136.1,209.5v-173 M138,208.3V35.9 M140,207.2v-172 M141.9,206.1V34.5 M143.8,205V33.9 M145.7,203.9V33.2 M147.7,202.8V32.6
		 M149.6,201.7V32 M151.5,200.6V31.4 M153.4,199.5V30.8 M155.4,198.5V30.2 M157.3,197.4V29.6 M159.2,196.4V29 M161.1,195.4v-167
		 M163,194.4V27.8 M165,193.4V27.2 M166.9,192.3V26.7 M168.8,191.4V26.1 M170.8,190.4V25.6 M172.7,189.4V25 M174.6,188.5v-164
		 M176.5,187.5V24 M178.5,186.6V23.5 M180.4,185.7V22.9 M182.3,184.7V22.5 M184.2,183.8V22 M186.2,182.9V21.5 M188.1,182.1V21
		 M190,181.2V20.5 M191.9,180.3V20 M193.9,179.5V19.6 M195.8,178.6V19.1 M197.7,177.8V18.6 M199.6,177V18.2 M201.5,176.2V17.8
		 M203.5,175.4v-158 M205.4,174.6V16.9 M207.3,173.8V16.5 M209.3,173V16 M211.2,172.3V15.7 M213.1,171.5V15.3 M215,170.8V14.9
		 M216.9,170.1V14.5 M218.9,169.3V14.1 M220.8,168.6V13.7 M222.7,167.9V13.4 M224.6,167.3V13 M226.6,166.6v-154 M228.5,165.9V12.3
		 M230.4,165.3V11.9 M232.4,164.6v-153 M234.3,164V11.3 M236.2,163.4V10.9 M238.1,162.8V10.6 M240,162.2V10.3 M242,161.6V10
		 M243.9,161V9.7 M245.8,160.4V9.4 M247.7,159.9V9.1 M249.7,159.3V8.8 M251.6,158.8V8.5 M253.5,158.2V8.2 M255.4,157.7V8
		 M257.4,157.2V7.7 M259.3,156.7V7.5 M261.2,156.2V7.2 M263.1,155.8V7 M265.1,155.3V6.7 M267,154.8V6.5 M268.9,154.4V6.3
		 M270.8,153.9V6.1 M272.8,153.5V5.8 M274.7,153.1V5.6 M276.6,152.7V5.4 M278.5,152.3V5.2 M280.5,151.9V5 M282.4,151.5V4.8
		 M284.3,151.2V4.6 M286.2,150.8V4.4 M288.2,150.4V4.3 M290.1,150.1V4.1 M292,149.8V3.9 M293.9,149.5V3.8 M295.9,149.2V3.6
		 M297.8,148.8V3.5 M299.7,148.5V3.3 M301.6,148.3V3.2 M303.6,148V3 M305.5,147.7V2.9 M307.4,147.5V2.8 M309.3,147.2V2.6
		 M311.3,178.6v-0.9 M311.3,147V2.5 M313.2,177.3v-1.1 M313.2,146.7V2.4 M315.1,176.1v-1.3 M315.1,146.5V2.3 M317,175v-1.6
		 M317,146.3V2.2 M319,173.9V172 M319,146.1V2.1 M320.9,172.8v-2.3 M320.9,145.9V2 M322.8,171.8v-2.7 M322.8,145.7V1.9 M324.7,170.7
		v-3.1 M324.7,145.5V1.8 M326.7,169.8v-3.6 M326.7,145.3V1.8 M328.6,168.8v-4.1 M328.6,145.1V1.7 M330.5,168v-4.6 M330.5,145V1.6
		 M332.4,167.1v-5.2 M332.4,144.8V1.5 M334.4,166.3v-5.8 M334.4,144.7V1.5 M336.3,165.5v-6.4 M336.3,144.5V1.4 M338.2,164.7v-7.1
		 M338.2,144.4V1.4 M340.1,164v-7.8 M340.1,144.2V1.2 M342.1,163.3v-8.6 M342.1,144.1V1.2 M344,162.6v-9.3 M344,144V1.2 M345.9,162
		v-10.1 M345.9,143.8V1.1 M347.8,161.4v-10.9 M347.8,143.7V1.1 M349.8,160.8V149 M349.8,143.6V1 M351.7,160.2v-12.7 M351.7,143.5V1
		 M353.6,159.7v-13.6 M353.6,143.4V1 M355.5,159.2v-14.5 M355.5,143.3V0.9 M357.4,158.7v-15.5 M357.4,143.2V0.9 M359.4,158.3V0.9
		 M361.3,157.9V0.9 M363.2,157.5V0.9 M365.2,157.2V0.8 M367.1,156.8V0.8 M369,156.5V0.8 M370.9,156.3V0.8 M372.9,156V0.9
		 M374.8,155.8V0.8 M376.7,155.7V0.9 M378.6,155.5V0.9 M380.6,155.4V0.9 M382.5,155.3V1 M384.4,155.3V1 M386.3,155.2V1 M388.3,155.3
		V1.1 M390.2,155.3V1.1 M392.1,155.4V1.2 M394,155.5V1.2 M396,155.6V1.3 M397.9,155.8V1.4 M399.8,156V1.4 M401.7,156.3V1.5
		 M403.6,156.6V1.6 M405.6,156.9V1.7 M407.5,157.2V1.8 M409.4,157.6V1.9 M411.3,158.1V2 M413.3,158.6V2.1 M415.2,159.1V2.2
		 M417.1,159.7V2.4 M419.1,160.3V2.5 M421,161V2.6 M422.9,161.7V2.8 M424.8,162.5V2.9 M426.7,163.3V3.1 M428.7,164.2V3.2
		 M430.6,165.2V3.4 M432.5,166.2V3.6 M434.4,167.3V3.8 M436.4,168.4V4 M438.3,169.6V4.2 M440.2,170.8V4.4 M442.1,172V4.6 M444.1,173
		V4.8 M446,173.9V5 M447.9,174.7V5.3 M449.8,175.5V5.5 M451.8,176.2V5.8 M453.7,176.8V6 M455.6,177.3V6.3 M457.5,177.8V6.6
		 M459.5,178.2V6.9 M461.4,178.6V7.2 M463.3,178.8V7.5 M465.2,179.1V7.8 M467.2,179.2V8.1 M469.1,179.3V8.5 M471,179.3V8.8
		 M472.9,179.2V9.2 M474.9,179.1V9.5 M476.8,178.8V9.9 M478.7,178.5V10.3 M480.6,178.1V10.7 M482.6,177.7V11.1 M484.5,177.1V11.5
		 M486.4,176.4V12 M488.3,175.5v-163 M490.3,174.4V12.9 M492.2,173.1V13.4 M494.1,171.4V13.9 M496,168.9V14.5 M497.9,120V15.1
		 M499.9,107.2V15.8 M501.8,93.5V16.7 M503.7,78.5V17.6 M505.7,61.2V18.9"/>
	<g>
		<path class="st8" d="M432.1,29.3c-6.4,5.8-11.4,12.8-15.1,21.3c-3.6,8.5-5.9,18.7-6.8,30.7c-0.6,7.5,0.1,14.5,1.9,20.8
			s4.8,11.9,8.7,16.7c4.1,5,8.5,6.9,13,6.6c4.9-0.3,9.8-3.1,14-7.1c6.6-5.1,12.2-13.5,14.9-20.8c2-5.5,3.5-11.5,4.5-17.6
			s1.7-12.4,2.1-18.4c2.3-3.7,2.7-7.7,2.8-11.7c0-1.7-0.9-2.3-1.8-1.5c-0.7,0.6-1,1.5-1.8,1.7c0.2-11-3.4-17.7-9.4-20.6
			c-4.1-1.9-7.9-1.5-10,1.6c-1.7,0.8-3.1,2.3-3.7,4.8c-0.1,0.5-0.2,0.9-0.4,1.4c-1.6-2.9-3.5-5.6-5.1-8.4c-1.4-2.4-2.8-3.1-4.3-2.4
			C435.1,26.6,432.8,28.7,432.1,29.3L432.1,29.3z M443.9,43.2c-0.8,5.6-1,11.5-0.3,17.2c1.5,6.1,5,8.1,8.2,7.7
			c-1,7.6-2.5,15-4.8,21.7c-2.2,6.5-5.3,12.3-9.6,17.2c-1.7,0.8-3.5,0.5-5.2-3c-3.5-7.2-4.5-14.9-3.9-23c0.6-8,2.9-16.5,6.1-25
			C437.7,50,440.8,45.6,443.9,43.2L443.9,43.2z M390.4,23.3c5-0.4,10,1.5,15,3.7c3.3,1.5,3.3,3.7,2.9,6.5c-0.6,4.6-0.3,9.5-0.8,14.2
			c-0.4,4.2-2.9,4.3-4.6,2.4c-5.4-5.6-10.3-7.4-15.3-8.1c-0.3,0-0.7-0.1-1,0c-0.2,0.8-0.2,1.7,0.1,2.8c1.6,8,3.9,14.6,6.5,21.2
			s5.5,13,8.1,20.4c2.3,6.4,3.2,18.9-5.6,27.4c-0.6,0.6-1.3,1.1-2,1.6c-0.2,0.2-0.4,0.5-0.7,0.7c-10.1,9.7-29.8,1.9-31.4-12.9
			c-0.1-1.3-0.1-2.4,0.2-3.2c1-3,2.3-3.6,4.1-3.6c0.4,0,0.9,0.2,1.5,0.6c3.8,2.8,10.8,4.9,16.1,3.7c0.2-0.8,0.2-1.9-0.2-3.5
			c-2-8.8-4.4-14.7-6.7-20.3c-2-4.6-4.5-10.1-6-15.7c-1.5-5.7-2.1-11.6-0.4-17.2c2.2-7.2,5.9-12.4,10.1-15.4
			C383.5,25.4,387,23.6,390.4,23.3L390.4,23.3z M335.9,23.3c0.7-0.3,1.6-0.6,2.6-0.9c3.6-1.1,7.4-1.1,11.2-1.1
			c6.4,0,9.8,3.9,9.7,10.3c-0.2,13.1-2.1,29-4.7,43.1s-6.3,26.6-9.9,32.9c-2.2,3.8-5,7.1-8,9.2c-4.7,4.6-10,6.6-13.6,2.6
			c-3.7-4-6.9-8-9.6-12.6c-1.3-2.3-2-4.9,1.2-9.7c2.7-4.3,4.8-9,7.9-12.8c3.1-3.9,4.5-4,4.8-4.1c0.9-0.2,1.3,0.6,1.1,1.8
			c-1,6.1-2,12.1,1,17.8c0.2,0.4,0.4,0.6,0.6,0.8c2.8-8.9,5-18.4,6.8-28.3c1.9-10.2,3.3-20.9,4.7-31.8c-6.8,1-12.9,3.5-18.4,6.5
			c-0.9,0.5-1.8,0.4-1.4-1.2c1.2-4.8,2.2-9.9,4.8-14.4C329.6,26.5,332.5,24.8,335.9,23.3L335.9,23.3z M271.3,29.6
			c-5.3,1.6-9.7,4.4-13.1,11.6c-2.5,5.2-4.3,10.7-6.2,16.1c-1.4,4.1,0.4,3.5,2.8,2c4.7-2.9,9.4-5.8,14.3-7.9
			c7.9-3.4,15.8-5.5,21.9-3c3.7,1.5,5.2,6.1,5.2,12.4c-0.1,6.3-1.8,14.5-4.8,23.2c-3.3,9.7-7.5,16.9-12.3,21.5
			c-2.3,1.7-4.6,2.8-6.9,3.4c-1.4,0.3-1.5-0.7-1.3-2c1.4-8.8,3.1-17.7,5.1-26.7c1.9-8.9,4.2-18,7.1-27.2c0.9-2.8,0.6-5.1-2.9-3.2
			c-3.9,2.2-7.8,3.9-11.7,6.4c-0.7,0.4-1.3,1-1.8,1.7c-0.3,0.2-0.6,0.4-0.9,0.6c-2.4,1.6-3.5,4.9-4.3,8.4
			c-1.9,8.3-3.5,15.9-4.8,23.7c-1.3,7.9-2.5,16-3.6,25.5c-0.6,5.4,1.1,7.9,3,9c5.3,3.1,10.5,4.6,15.9,2.7c6.1-2.3,11.3-5.6,15.7-9.6
			c4.8-3.9,8.7-8.5,11.8-13.5c4.4-7.1,8.3-15.8,10.9-24.8s3.9-18.3,3.4-26.7c-0.9-15-7-23.4-13.6-25.6
			C291,24.7,281.2,26.5,271.3,29.6L271.3,29.6z M207.7,72.3c2.3-2,4.6-3.9,6.8-5.8c0.6-0.5,1.2-1.1,1.8-1.6c0.4-0.4,0.7-0.6,1-0.8
			c0.6-0.5,1.1-1,1.7-1.5c2.6-2.4,2.5-0.7,1.8,3.1c-1.1,6.3-2.3,12.4-3.4,18.4c-1.1,5.7-2.2,11.2-3.3,16.6c3.1-3.5,6.1-7.3,8.8-11.7
			c3.4-5.7,6.4-12.7,8.1-22c1.4-7.5,0.8-14.9-9.2-10.7c-3.7,1.6-7.1,3.7-10.2,6.3c-3.5,3.1-6.8,6.6-10.2,10.2
			c-0.3,0.4-0.7,0.6-1.1,0.7l-1.5,1.6c-0.9,0.9-2.2,1.1-3-0.4c-1.9-3.3-2.7-6.7-2.9-11.2c0-1.1-0.2-2.6,1.4-4.1
			c2.8-2.7,5.6-5.2,8.4-7.6c7-6.1,13.9-11.1,20.6-13.7c8.7-3.3,16-2.4,21,2.9c2.9,3,4.6,6.9,4.8,11.8s-1.1,11-4.4,18.5
			c-4.8,11.1-12.1,21.3-20.3,31.2c2.1,4.2,3.3,8.9,3.8,14.1c0.2,2.3,1.2,1.7,2.2,1.1c1.6-1.1,3.1-2.1,4.5-3.3c1.8-1.7,3.5-3.4,5-5.2
			c0.9-1.1,1.6-1.5,1.9-1.4c0.2-0.3,0.5-0.5,0.7-0.8c2.1-2.4,2.7-1.7,2.2,1.2c-1.7,10.4-5.2,19.6-12.7,25.3l-0.2,0.2
			c-0.8,0.7-1.6,1.4-2.4,2.1c-5.1,3.9-10.1,4.8-13.1,0.2c-3.2-5-5.2-10.8-6.8-16.9c-2.2,7.8-4.6,14.9-7.5,21.1
			c-1.7,3.6-3.7,6-5.8,7.2c-3.2,3.6-6.8,4.2-9.6,2.7c-1.8-1-3-3-4.6-4.3c-1.4-1.1-1.8-3.2-0.3-7.2c1.8-4.7,3.9-9.3,5.6-14
			c1.1-2.6,2.3-4.5,4-4.1c0.5-0.1,0.9,0.3,1.2,1.3c0.5,1.6,0.6,3.4,1.1,5.1c0.9-6.5,1.7-13,2.7-19.6c1.1-7.3,2.3-14.9,4-22.7
			c0.9-4,1.8-7.5,4.7-10.1C206,73.8,206.8,73,207.7,72.3L207.7,72.3L207.7,72.3z M136.8,186.1c0.2-0.6,0.3-1.3,0.5-2.1
			c1-7,1.8-13.7,2.8-20.6c0.9-6.5,2-13.3,3.6-21c5.6-1.7,11.3-4,17.2-6.6c-0.5,3.2-1.1,6.4-1.7,9.5c-1.2,5.3,0.1,6,1.7,6.9
			c2.6,1.3,5.3,2.6,7.9,4.1c3.2,1.9,5.5-0.8,6.4-3.1c0.3-0.7,0.6-1.6,0.8-2.7c3-16.5,4.7-31.8,5-46.2c0.3-14.3-0.8-27.7-3.2-40.3
			c-0.4-2.4-1.3-4.6-4.1-5.3c-2.7-0.7-5.3-1.4-8.1-1.7s-4.3,0.9-5.4,2.5c-1.6,0.6-2.5,1.8-3.2,3.3c-5.3,10.1-10.1,20.5-14.3,31.2
			c-4,10.1-7.6,20.5-10.7,31.2c-2.5,0.1-4.8-0.1-7-0.5c-4.1-0.5-5.3,2-5.5,5.2c-0.4,8,0,15.6,4.5,15.7c0.8,0,1.7,0,2.5,0
			c-1.3,5.6-2.5,11.3-3.6,17c-1,5.7-2,11.5-2.8,17.4c-0.4,3.2,0.1,4.6,1.5,5.2c3.5,1.4,6.9,2.9,10.3,4.5
			C133.8,191,135.6,190.6,136.8,186.1L136.8,186.1z M148.5,122.4c1.7-6.2,3.8-13,6.3-20.4c1.9-5.9,4.3-12.2,6.9-19.1
			c0.6,4.7,1,9.9,1.2,15.3c0.2,6.3,0.2,12.9-0.2,19.6C157.7,119.7,152.9,121.3,148.5,122.4L148.5,122.4z M104.2,125.5
			c-1.1,1-2.2,2-3.4,2.8c-0.8,0.5-1.7,0.8-1-3.5c0.9-5.5,1.9-11.1,1.8-16.1c0-0.4,0-0.8-0.1-1.1l-0.1,0.2
			c-4.5,10.9-8.2,21.5-10.7,32c-2.5,10.4-3.8,20.5-3.5,30.1c0.1,2.6,1.9,2.3,3.9,1.2c3.3-1.7,6.7-4,10.2-6.9
			c2.6-2.3,5.2-4.9,7.8-7.8c1.2-1.3,2-1.9,2.5-2.1l0.1-0.2c3.6-4.1,4-1.9,3.3,2.1c-2.2,12.3-5.3,19.6-8.6,23.1
			c-3.1,3.3-6.2,6.3-9.5,9c-3,2.7-6.1,5.1-9.3,7.1c-8.7,5.7-15.5,5.6-18.3-3.1c-2-6.2-2.5-13.6-1.8-21.7c0.6-8.1,2.3-17.1,4.8-26.4
			c2.7-10.3,6-19.9,10.1-28.8s8.8-17.1,14.2-24.1c1.6-2.1,3.3-3.7,4.9-4.9c4.1-4.2,8.3-5.3,11.9-3.9s5.7,7.1,6.6,16.1
			c0.6,5.6-0.5,8.7-2.1,10.9C113.5,115.5,109.1,121.7,104.2,125.5z"/>
		<path class="st9" d="M448.1,35.5c-1.6-3.2-3.7-6-5.4-9.1c-1.7-3-3.5-3.3-5.3-1.7C431,30.5,426,37.5,422.3,46s-5.9,18.7-6.8,30.7
			c-0.6,7.6,0.1,14.5,1.9,20.8s4.8,11.9,8.7,16.7c4.1,5,8.5,6.9,13,6.6c11.2-0.6,22-14.4,26.2-25.6c2-5.5,3.5-11.5,4.5-17.6
			s1.7-12.4,2.1-18.4c2.2-3.7,2.8-7.7,2.8-11.7c0-1.7-0.9-2.3-1.8-1.5c-0.8,0.6-1.1,1.5-1.8,1.7c0.2-11-3.3-17.7-9.3-20.6
			c-5-2.4-9.7-1.3-11.1,4.1c-2.1,7.7-2.9,16.4-1.9,24.7c1.6,6.1,5,8.1,8.2,7.7c-1,7.6-2.5,15-4.8,21.7s-5.5,12.8-10.1,17.8
			c-1.9,2.1-4.9,3.9-7.3-1.3c-3.5-7.2-4.4-14.9-3.9-23c0.6-8,2.9-16.5,6.1-25c3.3-6.3,6.5-10.7,9.8-13.2
			C448.4,39.5,449.5,38.1,448.1,35.5L448.1,35.5z M393.1,21.1c5-0.4,10,1.5,15,3.7c3.3,1.5,3.3,3.7,2.9,6.5
			c-0.6,4.6-0.4,9.5-0.8,14.2c-0.1,1-1,1.2-2,0.1c-5.4-5.6-10.3-7.4-15.3-8.1c-3-0.4-4.3,1.8-3.6,5c1.6,8,3.9,14.7,6.5,21.2
			c2.6,6.6,5.5,13,8.1,20.4c2.3,6.4,3.2,18.9-5.6,27.4c-10.1,9.7-29.8,1.9-31.4-12.9c-0.4-3.5,0.8-5.6,3.1-3.9
			c3.8,2.8,10.8,4.9,16.1,3.6c1.9-0.4,3.4-1.5,2.5-5.7c-2-8.8-4.4-14.7-6.7-20.3c-2-4.6-4.5-10.1-6-15.7c-1.5-5.7-2.1-11.6-0.4-17.2
			C379,28.1,386.4,21.6,393.1,21.1L393.1,21.1z M347,36.1c-6.8,1-12.9,3.5-18.4,6.5c-0.9,0.5-1.8,0.4-1.4-1.2
			c1.1-4.8,2.3-9.8,4.8-14.4c1.4-2.5,3.2-5.2,9.1-7c3.6-1.1,7.4-1.1,11.2-1.1c6.4,0,9.8,3.9,9.7,10.3c-0.2,13.1-2.1,29-4.7,43.1
			c-2.7,14.1-6.3,26.6-10,32.9c-5.2,8.9-13.8,15.1-18.9,9.6c-3.7-4-6.9-8-9.6-12.6c-1.3-2.3-1.9-4.9,1.2-9.7c2.7-4.3,4.8-9,7.9-12.8
			c2.3-2.8,3.6-2.1,3.3,0c-1,6.1-2,12.1,1,17.8c0.9,1.8,2.3,1.5,2.9-0.4c3-9.2,5.3-19,7.2-29.3C344.1,57.6,345.6,46.9,347,36.1
			L347,36.1z M274.5,47c7.9-3.4,15.8-5.5,21.9-3c3.7,1.5,5.2,6.1,5.2,12.4c-0.1,6.3-1.9,14.5-4.8,23.2c-5.4,16-13.6,25.2-21.9,27.1
			c-1.4,0.3-1.4-0.7-1.3-2c1.4-8.8,3.1-17.7,5.1-26.7c1.9-8.9,4.2-18,7.1-27.2c0.8-2.8,0.6-5.1-2.9-3.2c-3.8,2.2-7.9,4-11.7,6.4
			c-2.4,1.6-3.5,4.9-4.3,8.4c-2,8.3-3.5,15.9-4.8,23.7c-1.3,7.9-2.5,16-3.6,25.5c-0.6,5.4,1.1,7.9,3,9c5.3,3.1,10.5,4.6,15.8,2.7
			c11.3-4.2,19.4-12,24.8-20.8c4.4-7.1,8.3-15.8,10.9-24.8s3.9-18.3,3.4-26.7c-0.9-15-7-23.4-13.6-25.6c-9.2-3-19-1.1-28.9,2
			c-5.3,1.6-8.4,4.9-10.4,9.3c-2.4,5.2-4.3,10.7-6.1,16.2c-1.4,4.1,0.4,3.5,2.8,2C264.9,51.9,269.6,49,274.5,47L274.5,47z M210.4,70
			c3.8-3.3,7.6-6.4,11.3-9.7c2.7-2.4,2.5-0.7,1.8,3.1c-1.1,6.3-2.3,12.4-3.4,18.4s-2.3,11.8-3.5,17.4c4.1-4.4,8.1-9.1,11.6-14.8
			c3.4-5.7,6.4-12.8,8.1-22c1.4-7.5,0.9-14.9-9.2-10.7c-8.9,3.8-15.7,11.1-23,18.8c-0.9,0.9-2.2,1.1-3-0.4
			c-1.9-3.3-2.7-6.7-2.9-11.2c0-1.1-0.2-2.6,1.4-4.1c8.9-8.5,17.8-15.7,26.4-19c8.8-3.3,16-2.4,21,2.9c2.9,3,4.6,6.9,4.8,11.8
			s-1.1,11-4.4,18.5c-4.8,11.1-12.1,21.3-20.2,31.2c2.1,4.2,3.3,8.9,3.8,14.1c0.2,2.3,1.2,1.7,2.2,1.1c5.1-3.3,8.8-6.8,12.2-10.8
			c2.1-2.4,2.6-1.7,2.2,1.2c-1.7,10.4-5.2,19.6-12.7,25.3c-5.1,3.9-10.1,4.8-13.1,0.2c-3.9-6.1-6-13.3-7.7-21.1
			c-2.6,10.4-5.5,19.7-9.2,27.6s-9.1,9.7-12.7,7.7c-1.8-1-3-3-4.6-4.3c-1.4-1.1-1.8-3.2-0.3-7.2c1.8-4.7,3.9-9.3,5.6-14.1
			c0.7-2.1,2-2.5,2.6-0.5c0.5,1.8,0.6,3.9,1.3,5.7c0.5,1.3,1.8,1.3,2.1-0.7c1.1-7.2,1.9-14.4,3-21.8c1.1-7.3,2.3-14.9,4-22.7
			C206.6,76.1,207.5,72.5,210.4,70L210.4,70z M125.3,175.4c-0.4,3.2,0.1,4.6,1.5,5.2c3.5,1.4,6.9,2.9,10.3,4.5
			c1.7,0.8,2.4-0.6,2.8-3.3c1-7,1.8-13.7,2.7-20.6c0.9-7,2.1-14.3,3.9-22.6c6.3-1.8,12.8-4.3,19.5-7.3c-0.5,3.2-1.1,6.4-1.7,9.5
			c-1.2,5.3,0.1,6,1.7,6.9c2.6,1.3,5.2,2.7,7.9,4.1c2.7,1.5,3.8,0.3,4.5-3.5c3-16.5,4.7-31.8,5-46.1s-0.8-27.7-3.2-40.3
			c-0.5-2.4-1.3-4.6-4.1-5.3c-2.7-0.7-5.3-1.4-8.1-1.7c-3.3-0.4-4.9,1.4-6,3.5c-5.3,10.1-10.1,20.5-14.4,31.2
			c-4.3,10.8-8.1,21.9-11.4,33.4c-3.2,0.2-6.2,0.1-9-0.4c-1.7-0.3-2.7,0.9-2.8,3c-0.3,8,0,15.6,4.5,15.7c0.8,0,1.7,0,2.5,0
			c-1.3,5.6-2.6,11.3-3.6,17C127.1,163.8,126.2,169.6,125.3,175.4L125.3,175.4z M151.2,120.2c1.7-6.2,3.8-13,6.3-20.4
			s5.5-15.7,9-24.8c0.9,5.6,1.5,12,1.7,18.7s0.2,13.8-0.3,20.9C161.9,116.9,156.3,118.8,151.2,120.2L151.2,120.2z M105.1,120.2
			c-0.7,4.3,0.2,4.1,1,3.5c5.2-3.7,9.8-10.2,14.5-16.5c1.7-2.2,2.7-5.4,2.1-10.9c-0.9-9.1-3.1-14.7-6.6-16.1
			c-4.3-1.7-9.4,0.3-14.2,6.5c-5.4,7-10.2,15.2-14.2,24.1s-7.4,18.5-10.1,28.8c-2.4,9.3-4.2,18.3-4.8,26.4
			c-0.6,8.2-0.1,15.6,1.8,21.8c2.8,8.7,9.5,8.8,18.3,3.1c5.5-3.5,10.8-8.2,16.1-13.8c3.3-3.5,6.4-10.8,8.6-23.1
			c0.7-4,0.4-6.1-3.3-2.1c-7.1,8-14.1,13.6-20.6,17c-2,1-3.8,1.4-3.9-1.2c-0.3-9.6,1-19.7,3.5-30.1s6.2-21.1,10.7-32
			c1.7-4.2,2.7-4.7,2.8-1.4C107,109.1,105.9,114.7,105.1,120.2z"/>
	</g>
</g>
</svg>
